<?xml version="1.0" encoding="UTF-8"?>
<svg width="554.38mm" height="135.65mm" version="1.1" viewBox="0 0 554.38 135.65" xmlns="http://www.w3.org/2000/svg"><g transform="translate(-9.002 -4.0442)"><path d="m93.201 4.0645c-4.4851 0.15572-7.8593 1.1787-10.834 3.1562-3.1846 2.1171-5.0131 4.6099-6.2031 8.5176-0.64073 2.1038-0.641 2.268-0.66016 6.916-0.01898 4.6081-6.28e-4 4.9116 0.64062 7.4277 1.6979 6.6622 4.5664 11.436 10.543 17.439 1.841 1.8492 4.3009 3.9588 4.8301 4.2949 0.98024 0.62272 1.7312 0.96961 2.1621 2.1094 0.21546 0.56988 0.10788 1.3747-0.18359 1.8496-0.29147 0.47489-0.63328 0.73718-0.98828 0.98828-0.84778 0.59966-2.3889 1.3746-3.9922 2.1621-0.80164 0.39378-1.583 0.76229-2.2148 1.041-0.31591 0.13936-0.5911 0.25587-0.83398 0.34766-0.12144 0.04589-0.2335 0.08443-0.35742 0.12109-0.12393 0.03667-0.1994 0.09375-0.57422 0.09375-0.7946 0-0.87941-0.1755-1.252-0.33594-0.37254-0.16043-0.8032-0.37164-1.2988-0.62695-0.99127-0.51063-2.227-1.1984-3.5312-1.959-2.6086-1.5211-5.451-3.3002-7.0957-4.5391-14.782-11.135-17.324-12.827-24.537-16.287-4.323-2.074-9.5819-3.8862-12.93-4.498-3.2733-0.59823-10.971-0.54469-13.281-0.0078-4.1543 0.9654-7.0952 2.7456-8.9883 5.2285-1.8931 2.4829-2.8039 5.7466-2.5879 9.9355 0.29856 5.7904 1.9576 9.6272 7.459 16.963 4.9243 6.5662 9.1469 10.77 9.1455 16.492-9.52e-4 4.1869-3.2809 7.5034-5.8623 12.779-5.2224 10.673-6.7729 16.443-6.5234 23.908 0.14631 4.3779 0.608 6.5117 2.0195 9.5176 3.2643 6.9514 9.0481 11.176 17.162 12.457 2.0653 0.32605 7.235 0.0595 10.123-0.60352 10.148-2.3296 16.792-9.7015 25.12-22.431 1.5126-2.312 3.2353-4.9737 4.1284-6.4594 1.985-3.3019 5.6545-8.383 6.7522-9.856 1.2997-1.744 2.2264-2.6316 3.4218-3.8715 1.0582-1.0975 1.9277-2.5182 3.3143-3.152 1.4011-0.64044 3.062-0.53983 4.5999-0.44838 2.1038 0.12512 4.3576 0.74892 6.1758 1.3549 2.1808 0.72686 3.5556 2.728 5.2595 3.6032 0.85195 0.43763 1.5811 0.85686 2.1641 1.2695 0.29146 0.20634 0.54567 0.40772 0.78515 0.6543 0.23949 0.24657 0.54272 0.50451 0.64258 1.2012 0.0739 0.51524-0.22702 1.5163-0.71484 1.9434s-0.93553 0.60561-1.5977 0.89844c-0.63174 0.27939-2.3574 1.256-3.4961 2.0137-5.2868 3.5177-8.6778 8.653-9.8379 13.721-1.1601 5.0677-0.13854 9.9732 3.3223 13.416 3.2734 3.2565 7.2868 4.5365 12.375 3.8594 6.5892-0.87687 12.445-4.3833 18.252-11.125 2.2578-2.6214 3.4344-4.3261 5.6992-8.2637l1.75-3.043c0.27749-0.48254 0.79919-0.77196 1.3555-0.75195l1.0312 0.0371c1.3495 0.0463 2.9255 0.18241 4.2305 0.34179 0.65251 0.0797 1.2324 0.16252 1.7031 0.25196 0.23534 0.0447 0.44129 0.0902 0.64453 0.14844 0.20323 0.0583 0.31567-0.0926 0.89453 0.48632 0.61106 0.61255 0.51546 1.0575 0.51758 1.3789 2e-3 0.32186-0.0372 0.61646-0.0957 0.9707-0.117 0.70849-0.33292 1.6352-0.66406 2.916-1.1498 4.4474-1.7399 8.4398-1.7715 11.785-0.0219 2.3185-7e-3 2.4916 0.45703 3.5508 0.82854 1.8898 1.8374 2.5304 3.3262 2.543s3.6551-0.87441 6.0762-2.9746c5.4123-4.6949 9.032-11.099 9.9648-17.506 0.30736-2.1107 0.21517-3.1244 1.0137-4.2695 0.39925-0.57258 1.0268-0.92561 1.5566-1.1191 0.52988-0.19352 1.0575-0.31721 1.7695-0.52148 4.979-1.4284 11.751-4.2801 16.564-6.9844 9.5359-5.357 17.128-11.74 23.467-19.707 3.0041-3.7761 3.9613-5.2482 5.3906-8.2656 1.2518-2.6425 1.7797-4.8016 1.7051-6.6836-0.0746-1.882-0.71848-3.5546-2.0859-5.3672-6.0609-8.0336-19.629-17.196-32.184-21.533-8.6475-2.9872-15.268-4.1154-25.424-4.3242l-6.9141-0.14258c-0.57129-0.01217-1.0861-0.34758-1.3281-0.86524l-0.75586-1.6191c-0.3712-0.79446-1.3085-2.5547-2.002-3.748-9.3116-16.024-25.079-26.724-41.051-28.059-1.7535-0.14656-3.3682-0.19449-4.8633-0.14258zm3.3603 3.0816c4.4764 0.19529 12.506 1.3092 16.896 3.143 9.9712 4.1651 15.351 12.186 21.841 22.541 0.50057 0.7987 0.94505 1.5775 1.2754 2.2266 0.16517 0.32454 0.30215 0.61292 0.41015 0.88476 0.054 0.13592 0.10038 0.26628 0.14258 0.42383 0.0422 0.15754 0.12164 0.29999 0.0586 0.75391-0.058 0.41765-0.35623 0.95073-0.6875 1.2285-0.33127 0.27778-0.63728 0.40136-0.96875 0.52148-0.66296 0.24025-1.5071 0.43527-2.9043 0.74023-1.7933 0.39141-4.1801 0.98464-5.1367 1.2695-1.0966 0.3266-1.8448 0.65217-2.9238 0.34375-0.53952-0.15421-1.011-0.53389-1.2988-0.89258-0.28778-0.35869-0.46831-0.70581-0.66993-1.0957-0.29208-0.56483-1.3526-2.0827-2.5684-3.6074-1.2158-1.5247-2.6258-3.1477-3.7188-4.2461-2.9659-2.9808-5.6475-4.7939-8.416-6.1758 4.4976 3.4102 8.2165 7.0718 11.951 12.09 0.51752 0.69535 0.97605 1.3675 1.3203 1.9277 0.17214 0.28013 0.31532 0.52844 0.4336 0.77148 0.0591 0.12152 0.11141 0.23816 0.16406 0.39648 0.0526 0.15832 0.18695 0.29705 0.0703 0.89062-0.14731 0.75016-0.40477 0.79844-0.53711 0.91797-0.13233 0.11953-0.23719 0.19178-0.34765 0.26562-0.22093 0.14769-0.45803 0.28344-0.73438 0.43164-0.5527 0.2964-1.2452 0.6281-1.9629 0.95117s-1.4546 0.63447-2.0879 0.87305c-0.31665 0.11929-0.60557 0.21904-0.87305 0.29883-0.26747 0.07979-0.43307 0.16406-0.90429 0.16406-0.77064 0-0.76007-0.18308-0.90039-0.26562-0.14033-0.08254-0.25175-0.163-0.375-0.25391-0.24652-0.18181-0.52256-0.40675-0.8418-0.67969-0.63849-0.54587-1.4361-1.2746-2.2656-2.0781-4.3959-4.2585-8.6337-6.8043-13.629-8.2578 4.2819 2.3352 6.5763 3.6905 8.4844 5.1133 1.3474 1.0047 2.8391 2.2685 4.0254 3.3691 0.59315 0.5503 1.1058 1.0562 1.502 1.4902 0.19807 0.21703 0.36672 0.41257 0.51953 0.625 0.15281 0.21243 0.42968 0.22892 0.42968 1.166 0 0.76117-0.28129 0.91816-0.4082 1.0684-0.1269 0.1502-0.22824 0.23776-0.33398 0.32617-0.21148 0.17682-0.43616 0.33218-0.70117 0.50391-0.53003 0.34345-1.2073 0.72973-1.957 1.1113-1.3881 0.70657-3.6267 1.907-4.9043 2.6289-0.68122 0.38494-1.3431 0.73322-1.8887 0.99609-0.2728 0.13144-0.51372 0.24144-0.73438 0.33008-0.22066 0.08864-0.18344 0.214-0.90625 0.21484-0.5189 7.87e-4 -0.61072-0.09522-0.80273-0.16602-0.19201-0.07079-0.38252-0.15451-0.58789-0.25195-0.41075-0.19488-0.87621-0.44619-1.3418-0.72656-6.4475-3.8825-13.413-8.6497-16.537-14.838-4.2502-8.4195-2.9646-17.932 1.2696-23.684 2.2717-3.0859 5.6599-4.7811 10.361-5.3887 1.2947-0.16731 3.2085-0.45614 4.7001-0.39107zm-70.704 28.079c3.192-0.1652 6.7045 0.18144 10.049 1.0742 8.2342 2.1982 18.85 6.3099 29.5 14.468 6.4035 4.9052 8.4214 8.3608 10.853 9.8113 0.59377 0.35416 1.1432 0.713 1.582 1.0273 0.21944 0.15717 0.409 0.29893 0.58203 0.44726 0.08652 0.07417 0.16933 0.14914 0.26367 0.25 0.09434 0.10086 0.21481 0.16772 0.37305 0.58008 0.30359 0.79115 0.08489 1.1237-0.03711 1.4629-0.122 0.33914-0.28781 0.64117-0.51758 0.93945-0.50758 0.65891-1.1605 2.0488-1.3726 2.1105-0.30376 0.08835-9.6919-0.85372-19.256-3.3753-12.765-3.3655-26.364-8.6014-26.399-8.5349-0.03248 0.06293 13.68 5.5723 26.31 9.0488 9.6396 2.6533 18.819 3.3428 18.993 3.5431 0.11527 0.13256-0.97613 2.3329-1.2107 3.4676-0.28622 1.3848-0.0594 2.0659-0.36571 3.0855-0.12211 0.40646-9.6404 1.4365-18.021 1.8504-8.1876 0.4044-15.243 0.19665-15.24 0.26751 0.0048 0.10211 9.4071 0.22713 14.924 0.01972 5.6671-0.21305 18.015-1.4847 18.37-1.2131 0.26516 0.2029 0.07343 0.87028 0.10795 1.3024 0.21057 2.6363 1.3703 5.8825 1.1531 6.2884-0.17094 0.31944-11.105 6.0098-19.937 11.323-11.698 7.0371-21.913 13.941-21.871 14.045 0.04006 0.10024 11.277-7.3864 22.915-14.052 6.1059-3.4972 19.042-10.476 19.29-10.406 0.24142 0.06764 1.3328 2.6922 2.339 4.1888l1.4941 2.2207c0.34916 0.5198 0.33904 1.2017-0.02539 1.7109l-0.99414 1.3906h2e-3c-2.2521 3.1539-7.6874 11.766-12.316 19.543-4.1211 6.9239-7.3384 11.082-11.551 14.871-5.2283 4.7035-10.914 7.4231-17.262 8.1992-2.5059 0.30648-3.0499 0.30082-5.2891-0.0254-5.0979-0.74273-11.6-2.1595-14.338-5.8031-4.6981-6.2526-3.6197-15.252-0.58812-24.433 0.5495-1.6641 1.7891-4.6704 2.8359-6.9121 4.9511-10.602 5.7102-13.062 5.7109-18.547 6.58e-4 -4.1884-0.48729-6.3538-2.1836-9.7305-1.3542-2.6957-1.8354-3.4226-5.2773-8.0215-2.9777-3.9785-5.0996-7.717-6.084-10.91-0.97886-3.1752-2.9311-8.0676-1.7459-10.669 0.83949-1.8423 2.4941-3.6943 4.2324-4.7754 2.1299-1.3246 6.8098-0.96297 10.002-1.1282zm122.18 5.3319c9.2415 1.1552 13.902 1.8984 21.336 3.9689 11.729 3.2666 21.482 9.8768 30.478 18.329 1.8818 1.768 3.7023 2.8878 4.5181 4.0591 0.81584 1.1713 1.5474 1.9286 1.6348 3.1372 0.10938 1.512-0.11767 2.5389-1.002 4.3281-1.2353 2.4995-2.9451 4.1346-5.6191 5.4121-1.6215 0.7747-2.59 0.97782-5.584 1.1035-1.0973 0.04606-1.222 0.09462-1.6699 0.1582 0.12467 0.0828 0.0583 0.09296 0.27734 0.18164 0.66343 0.26865 1.6944 0.48038 2.9297 0.51953 0.66107 0.02094 1.2687 0.06835 1.7656 0.13672 0.24845 0.03419 0.46171 0.06825 0.69336 0.13086 0.11582 0.0313 0.2338 0.06377 0.4121 0.15039 0.17831 0.08662 0.56671 0.13804 0.83008 0.92773 0.19609 0.58835 0.0588 0.80234 0.0117 0.9668-0.047 0.16446-0.0933 0.26647-0.14062 0.36524-0.0945 0.19753-0.1953 0.36556-0.31446 0.55078-0.23832 0.37043-0.551 1.6038-0.85987 2.067-0.73622 1.1039-3.0679 3.9231-5.7859 6.1407-3.21 2.619-7.6537 4.4273-9.9831 5.5091-0.73174 0.33983-1.4028 0.60176-2.2344 0.71875-0.83156 0.117-1.7582 0.12165-3.3535 0.11914-4.2412-0.0069-6.3725-0.50738-10.189-2.3965-5.7848-2.863-11.021-6.8705-13.312-12.97-1.5365-4.0905-2.3767-7.6022-1.6122-12.765 0.21942-1.4817 0.96473-4.6637 1.2926-5.3974 0.83934-1.8786 0.98915-3.1051 1.0462-3.9913-0.24695 0.31528-0.38003 0.40388-0.69141 0.88086-1.2606 1.9312-2.4361 4.866-3.1133 7.9219-0.52946 2.3894-0.3233 8.708 0.36328 11.07 2.4346 8.3765 9.3664 15.74 18.422 19.408 0.55525 0.2249 1.0472 0.4664 1.4629 0.72265 0.20785 0.12813 0.39504 0.25252 0.5957 0.43555s0.625 0.32612 0.625 1.3086c0 0.60813-0.25575 0.89271-0.4043 1.0684-0.14854 0.17565-0.27022 0.26915-0.38867 0.35743-0.23691 0.17654-0.47164 0.29802-0.74023 0.44726-0.41828 0.23242-3.9393 2.261-5.7001 3.116-4.5734 1.8366-10.104 3.262-14.316 3.7326-3.563 0.39814-10.636-0.68948-14.037-1.156-9.1008-1.2483-16.856-5.657-23.865-11.044-2.1865-1.6806-6.2599-4.1694-9.502-5.7871-4.6451-2.3178-8.7533-3.6404-14.422-4.6309-1.5863-0.27717-2.7064-0.46767-3.7305-1.2402-1.024-0.77256-3.3927-1.8755-4.4132-3.5601-2.3121-3.8166-3.3869-8.9875-2.5527-12.99 0.73708-3.5368 4.6714-6.6214 7.6222-8.3481 0.87528-0.51217 2.7423-1.3462 4.5977-2.1191 3.3695-1.4036 8.3012-4.9326 14.334-8.1427 5.8151-3.094 10.933-5.4783 15.835-7.3271 5.4039-2.0381 10.546-3.4255 16.072-4.3956 3.8242-0.67135 7.8004-1.7622 12.382-1.1895zm29.004 22.627c-2.6686 0.0044-3.7041 0.60848-4.8516 2.7637-0.35947 0.67514-0.3877 0.86573-0.39063 2.8711-3e-3 2.1747-0.034 2.0999 0.5625 3.2969 0.62617 1.2566 1.6455 2.0789 2.834 2.375 0.82073 0.20446 3.0913 0.0039 4.0273-0.41016 2.126-0.94041 3.2866-2.7391 3.4473-4.8984-0.21023 0.2859-0.40124 0.61164-0.63672 0.79688-1.1685 0.91911-2.7147 1.0632-3.9141 0.48633-1.1994-0.57686-2.0527-1.8802-2.0527-3.3672 0-1.8636 1.3896-3.283 3.0371-3.5879-0.60428-0.17696-1.2179-0.32757-2.0625-0.32617zm-48.057 12.334c-0.86573-0.06874-1.6269-0.03715-2.252 0.07617-3.9733 0.72039-6.3363 3.0783-6.9961 6.9258-0.62839 3.6645 1.6232 9.2569 5.5488 12.773 1.9885 1.7813 4.6133 3.0654 7.2422 3.5391 3.4939 0.62956 8.0294-0.94347 11.211-4.125 1.2783-1.2783 1.9606-2.4616 2.123-3.127 0.0813-0.33268 0.0475-0.50133 0.0195-0.57422-9e-3 -0.0232-0.0654-0.05338-0.0781-0.07422-0.22044 0.14008-0.67891 0.49803-1.4141 1.2402-2.9853 3.014-6.2159 4.4727-10.08 4.4727-2.083 0-3.1463-0.20257-4.5352-0.85352-3.2548-1.5254-5.4617-4.6557-6.4062-7.8535-0.47228-1.5989-0.62938-3.2347-0.34961-4.7695s1.0473-3.0018 2.3867-3.957c1.1321-0.80747 2.5694-1.01 4.3066-0.91211 1.7373 0.09788 3.8583 0.51293 6.5684 1.2266 3.5361 0.93117 5.1314 1.3054 6.1836 1.4902-0.72361-0.53332-1.734-1.1933-3.7305-2.248-3.6457-1.926-7.1481-3.0436-9.748-3.25zm-18.395 28.84c1.8875 0.45897-0.1-0.32722 1.8379 0.625 0.58797 0.30449 1.2549 0.69314 1.9023 1.0996s1.2674 0.82408 1.7656 1.2031c0.24909 0.18952 0.46459 0.3644 0.66797 0.5625 0.10168 0.099 0.20102 0.19994 0.3164 0.35937 0.11538 0.15944 0.32862 0.34729 0.33789 0.97461 9e-3 0.67885-0.22231 0.84511-0.33008 0.99219-0.10776 0.14708-0.19267 0.23293-0.27929 0.3164-0.17324 0.16696-0.34849 0.30608-0.55274 0.45899-0.40849 0.30582-0.92197 0.64434-1.4902 0.98047-1.6475 0.97448-3.1062 2.3047-4.2188 3.666 1.8262-1.3331 3.739-2.5504 5.8848-3.5547 2.0513-0.96004 3.0677-1.4938 4.2188-1.6895 1.151-0.19564 2.1046 0.1689 3.1875 0.59375 0.64226 0.25198 1.1714 0.49639 1.6172 0.76563 0.22291 0.13462 0.42498 0.26741 0.64258 0.47851 0.2176 0.21111 0.58594 0.52067 0.58594 1.2969 0 0.69993-0.17366 0.8773-0.33008 1.2188s-0.35529 0.71319-0.5957 1.1309c-0.48083 0.83534-1.1268 1.8452-1.8555 2.9219-1.4573 2.1533-3.2276 4.5423-4.6504 6.1465-3.7205 4.1948-8.007 8.0391-12.503 8.987-3.8621 0.81423-8.9814 0.59697-11.522-1.1858-2.5402-1.7828-2.7731-5.8733-2.7643-9.5023 0.01385-5.6848 3.0865-11.067 8.168-14.58 1.5314-1.0587 3.4552-2.0832 5.2539-2.873s3.2641-1.3926 4.7051-1.3926zm43.43 9.5801c5.255 2.1926-4.2364 17.777-4.455 18.05-1.0994 1.3712-2.8826 2.8598-3.9692 3.5489-0.76647 0.48608-1.3838 0.83578-2.1836 0.95899-0.39989 0.0616-0.89881 0.0527-1.3848-0.19336-0.48596-0.24605-0.84305-0.71873-1.002-1.1328-0.36208-0.94357 0.0566-3.6751 0.13598-4.635 0.0794-0.95996 0.31478-2.6861 0.54375-3.9673 0.45794-2.5623 1.3878-5.1026 2.2172-7.7835l0.89844-2.9043c0.17297-0.55967 0.65565-0.96764 1.2363-1.0449l3.4199-0.45507c2.4598-0.32746 3.4506-0.56549 4.543-0.44141z" stroke-width=".26458"/><path d="m307.05 56.453v-2.4497h-21.573v2.3707c5.7686 0.7112 7.7442 2.6077 7.7442 7.4281 0 10.431-10.51 13.039-15.804 13.039-11.379 0-19.044-9.5617-19.044-23.786 0-14.698 7.033-24.497 17.622-24.497 4.2672 0 8.3764 1.6595 12.486 5.0574 2.6077 2.2126 4.6623 4.6623 8.2973 9.7988l3.0028-0.86924-4.8204-16.753h-2.4497l-1.5804 3.7931c-4.5833-3.1609-9.9568-4.8204-15.409-4.8204-12.96 0-26.472 10.273-26.472 27.737 0 16.042 11.695 28.132 27.263 28.132 6.7959 0 12.011-1.8965 17.938-6.4798l2.5287 5.4525h3.714v-14.224c0-7.27 1.5804-8.0603 5.1364-8.6924zm71.904-28.211v-2.4497h-19.36v2.4497l2.6077 0.23707c4.0301 0.39511 5.1364 2.2916 5.1364 8.6924v20.941c0 9.3246 0 18.728-15.804 18.728-14.224 0-15.172-7.8232-15.172-18.57v-21.099c0-6.4008 1.1853-8.3764 5.1364-8.6924l2.9238-0.23707v-2.4497h-23.074v2.4497l1.9756 0.23707c4.1092 0.55316 5.1364 2.2126 5.1364 8.6924v26.472c0 13.592 11.142 16.99 21.889 16.99 16.832 0 21.494-6.8749 21.494-17.148v-26.314c0-6.4798 1.0273-8.1393 5.1364-8.6924zm61.079 12.644c0-9.3246-7.5861-15.093-19.756-15.093h-26.235v2.4497l1.9756 0.23707c4.1092 0.55316 5.1364 2.2126 5.1364 8.6924v31.056c0 6.4798-1.0273 8.1393-5.1364 8.6924l-1.9756 0.23707v2.4497h23.074v-2.4497l-2.9238-0.23707c-3.9511-0.31609-5.1364-2.2916-5.1364-8.6924v-11.616h11.142c16.358 0 19.835-9.7197 19.835-15.725zm-8.0603 0.23707c0 5.1364-2.5287 12.09-13.039 12.09h-9.8778v-19.044c0-4.2672 1.4224-5.0574 9.0085-5.0574 7.27 0 13.908 2.3707 13.908 12.011zm67.637-0.23707c0-9.3246-7.5861-15.093-19.756-15.093h-26.235v2.4497l1.9756 0.23707c4.1092 0.55316 5.1364 2.2126 5.1364 8.6924v31.056c0 6.4798-1.0273 8.1393-5.1364 8.6924l-1.9756 0.23707v2.4497h23.074v-2.4497l-2.9238-0.23707c-3.9511-0.31609-5.1364-2.2916-5.1364-8.6924v-11.616h11.142c16.358 0 19.835-9.7197 19.835-15.725zm-8.0603 0.23707c0 5.1364-2.5287 12.09-13.039 12.09h-9.8778v-19.044c0-4.2672 1.4224-5.0574 9.0085-5.0574 7.27 0 13.908 2.3707 13.908 12.011zm71.826-12.881v-2.4497h-19.677v2.4497c4.6623 0.79022 7.5861 2.2126 4.5043 6.8749l-11.221 17.227-11.142-18.017c-2.4497-4.0301-1.2644-5.2945 5.0574-6.0847v-2.4497h-22.521v2.4497c4.4252 1.0273 5.8476 2.2126 9.3246 7.9022l13.197 21.02v11.063c0 6.4008-1.1853 8.3764-5.1364 8.6924l-3.2399 0.23707v2.4497h24.655v-2.4497l-3.2399-0.23707c-3.9511-0.31609-5.1364-2.2916-5.1364-8.6924v-11.221l13.039-19.993c4.1092-6.3218 6.0057-7.6652 11.537-8.7715z" stroke-width="3.5278" style="font-variation-settings:'wght' 700" aria-label="GUPPY"/><path d="m280.2 95.244v-1.3998h-11.153v1.3998l1.5804 0.13547c2.3029 0.22578 2.9351 1.3095 2.9351 4.9671v17.836l-14.721-24.339h-10.07v1.3998l1.1289 0.13547c2.3481 0.31609 2.9351 1.2644 2.9351 4.9671v17.746c0 3.7028-0.58702 4.651-2.9351 4.9671l-1.1289 0.13547v1.3998h11.153v-1.3998l-1.5804-0.13547c-2.3029-0.22578-2.9351-1.3095-2.9351-4.9671v-20.862l16.753 27.364h3.9737v-24.249c0-3.7028 0.58703-4.651 2.9351-4.9671zm37.41 19.733-1.3998-0.63218c-4.922 6.3218-8.6247 8.3086-15.353 8.3086-4.2898 0-5.1026-1.2192-5.1026-3.9737v-9.5278h3.3415c3.5673 0 5.1026 1.5804 5.5541 5.8251h1.5353v-13.502h-1.5353c-0.63218 4.6962-1.6256 5.7348-5.4638 5.7348h-3.4318v-7.6765c0-2.89 1.174-3.7479 5.1477-3.7479 6.1412 0 9.573 1.7159 13.727 6.7733l1.445-0.58702-3.1157-8.128h-25.784v1.3998l1.1289 0.13547c2.3481 0.31609 2.9351 1.2644 2.9351 4.9671v17.746c0 3.7028-0.58703 4.651-2.9351 4.9671l-1.1289 0.13547v1.3998h26.326zm35.062-13.185-2.5287-7.9474h-26.19l-2.5739 7.9474 1.4901 0.54187c2.6642-4.6962 5.7799-6.7733 9.9342-6.7733 1.4901 0 1.9868 0.45156 1.9868 1.8062v20.726c0 3.6576-0.67733 4.7865-2.9351 4.9671l-1.7611 0.13547v1.3998h13.908v-1.3998l-1.7611-0.13547c-2.2578-0.18062-2.9351-1.3095-2.9351-4.9671v-20.546c0-1.5804 0.36125-1.9868 1.8514-1.9868 3.9737 0 7.4055 2.3481 9.9342 6.7733zm50.054-6.5476v-1.3998h-11.379v1.3998c2.5287 0.27093 4.6059 0.67733 3.477 4.4252l-6.0508 18.785-6.5927-20.094c-0.85795-1.9868 0.45156-2.7996 3.1157-3.1157v-1.3998h-12.373v1.3998c2.9803 0.67733 4.1092 1.9417 5.2832 6.096l-5.3735 17.204-6.5927-19.868c-0.85796-2.3932 0.22578-3.2512 2.9803-3.4318v-1.3998h-12.282v1.3998c3.1157 0.76764 3.4318 1.0837 4.8316 4.9671l8.4893 24.384h2.6642l6.5927-19.733 6.6379 19.733h2.6642l8.7602-24.384c1.445-3.9737 2.2578-4.7865 5.1477-4.9671zm36.1 14.089c0-9.3021-6.7282-16.075-15.985-16.075-9.0763 0-16.256 6.9991-16.256 15.85 0 9.1214 6.954 16.075 16.075 16.075 7.7668 0 16.166-5.509 16.166-15.85zm-5.3284 0.27093c0 8.128-4.2446 13.411-10.792 13.411-6.5927 0-10.792-5.4187-10.792-13.863 0-8.3086 4.2898-13.727 10.837-13.727 6.5927 0 10.747 5.4638 10.747 14.179zm46.17 14.992v-1.3998c-2.2126-0.4064-3.4318-1.1289-4.8316-2.9351l-7.4958-10.612c7.4507-1.0837 8.3538-5.7799 8.3538-8.0377 0-4.8316-3.9285-7.7668-10.431-7.7668h-18.378v1.3998l1.1289 0.13547c2.3481 0.31609 2.9351 1.2644 2.9351 4.9671v17.746c0 3.7028-0.58703 4.651-2.9351 4.9671l-1.1289 0.13547v1.3998h13.14v-1.3998l-1.6256-0.13547c-2.3029-0.22578-2.9351-1.3095-2.9351-4.9671v-7.9926h6.5024l10.16 14.495zm-8.8505-22.804c0 2.1223-0.85796 6.3669-7.7668 6.3669h-7.5861v-9.7988c0-1.5804 0.85795-2.6642 6.683-2.6642 5.7799 0 8.6699 2.032 8.6699 6.096zm45.809 22.804v-1.3547c-3.0706-0.67733-4.2446-1.5804-6.4572-5.0123l-8.5796-13.998 5.4187-4.7413c2.7545-2.3481 5.238-3.7931 7.1797-4.1543l0.31609-0.09031v-1.3998h-12.914v1.3998l0.45156 0.04515c1.9417 0.18062 2.619 0.67734 2.619 1.8514 0 1.0386-0.36124 1.5353-2.6642 3.5673l-9.2569 8.3086v-8.6699c0-3.6576 0.67734-4.7865 2.9351-4.9671l1.8514-0.13547v-1.3998h-13.366v1.3998l1.1289 0.13547c2.3481 0.31609 2.9351 1.2644 2.9351 4.9671v17.746c0 3.7028-0.58702 4.651-2.9351 4.9671l-1.1289 0.13547v1.3998h13.366v-1.3998l-1.8514-0.13547c-2.2578-0.18062-2.9351-1.3095-2.9351-4.9671v-6.2766l5.238-4.651 7.27 11.605c1.4901 2.3932 1.7611 4.0188-1.7159 4.3349-0.13547 0-0.45156 0.0451-0.8128 0.0903v1.3998zm32.714-9.1214c0-5.3735-3.1609-7.4055-9.573-8.9408l-5.6444-1.3547c-4.3801-1.0837-6.1412-2.4836-6.1412-4.922 0-2.7093 2.89-4.8316 6.6379-4.8316 4.3349 0 7.9474 2.3029 11.108 7.1346l1.445-0.54187-2.7545-8.1732h-1.6256l-0.54187 1.6256c-2.5287-1.5353-5.1026-2.2126-8.5344-2.2126-7.541 0-10.341 4.8768-10.341 8.0829 0 6.096 7.0443 7.6764 9.3021 8.2635l6.0508 1.5353c4.4704 1.0837 6.0057 2.4384 6.0057 5.1477 0 3.8382-3.5221 6.7282-8.1732 6.7282-5.1929 0-9.7536-3.2512-12.914-9.3021l-1.6708 0.54187 2.9351 10.341h1.6708l0.85796-2.2578c2.7545 1.9417 5.7348 2.8448 9.3472 2.8448 7.0443 0 12.553-4.2898 12.553-9.7084z" stroke-width="3.5278" style="font-variation-settings:'wght' 700" aria-label="NETWORKS"/></g></svg>
