<?xml version="1.0" encoding="UTF-8" standalone="no"?>
<!-- Created with Inkscape (http://www.inkscape.org/) -->

<svg
   width="469.25546mm"
   height="469.2558mm"
   viewBox="0 0 469.25546 469.2558"
   version="1.1"
   id="svg1"
   inkscape:version="1.4.2 (ebf0e940d0, 2025-05-08)"
   sodipodi:docname="ECSC_Main_Logo_2025_PL.svg"
   xmlns:inkscape="http://www.inkscape.org/namespaces/inkscape"
   xmlns:sodipodi="http://sodipodi.sourceforge.net/DTD/sodipodi-0.dtd"
   xmlns="http://www.w3.org/2000/svg"
   xmlns:svg="http://www.w3.org/2000/svg">
  <sodipodi:namedview
     id="namedview1"
     pagecolor="#ffffff"
     bordercolor="#000000"
     borderopacity="0.25"
     inkscape:showpageshadow="2"
     inkscape:pageopacity="0.0"
     inkscape:pagecheckerboard="0"
     inkscape:deskcolor="#d1d1d1"
     inkscape:document-units="mm"
     inkscape:zoom="0.3789018"
     inkscape:cx="1307.7267"
     inkscape:cy="1328.8403"
     inkscape:window-width="1890"
     inkscape:window-height="1414"
     inkscape:window-x="0"
     inkscape:window-y="24"
     inkscape:window-maximized="1"
     inkscape:current-layer="layer-MC5" />
  <defs
     id="defs1">
    <clipPath
       clipPathUnits="userSpaceOnUse"
       id="clipPath2">
      <path
         d="M 0,1600 H 1600 V 0 H 0 Z"
         transform="translate(-1465.0867,-799.96234)"
         id="path2" />
    </clipPath>
    <clipPath
       clipPathUnits="userSpaceOnUse"
       id="clipPath4">
      <path
         d="m 579.464,1049.85 h 439.876 v 198.157 H 579.464 Z"
         transform="translate(0,-2.5000001e-5)"
         id="path4" />
    </clipPath>
    <clipPath
       clipPathUnits="userSpaceOnUse"
       id="clipPath6">
      <path
         d="m 579.464,1049.85 h 439.876 v 198.157 H 579.464 Z"
         transform="translate(0,-2.5000001e-5)"
         id="path6" />
    </clipPath>
    <clipPath
       clipPathUnits="userSpaceOnUse"
       id="clipPath8">
      <path
         d="M 0,1600 H 1600 V 0 H 0 Z"
         transform="translate(0,-2.5000001e-5)"
         id="path8" />
    </clipPath>
    <clipPath
       clipPathUnits="userSpaceOnUse"
       id="clipPath10">
      <path
         d="m 789.109,744.012 193.374,-90.171 200.623,430.238 -162.945,155.424 z"
         transform="translate(-916.52155,-772.09392)"
         id="path10" />
    </clipPath>
    <clipPath
       clipPathUnits="userSpaceOnUse"
       id="clipPath12">
      <path
         d="m 789.109,744.012 193.374,-90.171 200.623,430.238 -162.945,155.424 z"
         transform="translate(-1020.1476,-720.21259)"
         id="path12" />
    </clipPath>
    <clipPath
       clipPathUnits="userSpaceOnUse"
       id="clipPath14">
      <path
         d="M 0,1600 H 1600 V 0 H 0 Z"
         transform="translate(-1183.1062,-1084.0785)"
         id="path14" />
    </clipPath>
    <clipPath
       clipPathUnits="userSpaceOnUse"
       id="clipPath16">
      <path
         d="M 416.964,1084.079 617.587,653.841 810.96,744.012 579.909,1239.503 Z"
         transform="translate(-680.81572,-785.55042)"
         id="path16" />
    </clipPath>
    <clipPath
       clipPathUnits="userSpaceOnUse"
       id="clipPath18">
      <path
         d="M 416.964,1084.079 617.587,653.841 810.96,744.012 579.909,1239.503 Z"
         transform="translate(-784.07282,-838.16195)"
         id="path18" />
    </clipPath>
    <clipPath
       clipPathUnits="userSpaceOnUse"
       id="clipPath20">
      <path
         d="M 0,1600 H 1600 V 0 H 0 Z"
         transform="translate(-416.96371,-1084.0785)"
         id="path20" />
    </clipPath>
    <clipPath
       clipPathUnits="userSpaceOnUse"
       id="clipPath22">
      <path
         d="M 0,1600 H 1600 V 0 H 0 Z"
         transform="translate(-800.00005,-283.11251)"
         id="path22" />
    </clipPath>
    <clipPath
       clipPathUnits="userSpaceOnUse"
       id="clipPath24">
      <path
         d="M 0,1600 H 1600 V 0 H 0 Z"
         transform="translate(-800.00005,-847.1126)"
         id="path24" />
    </clipPath>
    <clipPath
       clipPathUnits="userSpaceOnUse"
       id="clipPath26">
      <path
         d="M 0,1600 H 1600 V 0 H 0 Z"
         transform="translate(-958.80002,-561.77929)"
         id="path26" />
    </clipPath>
    <clipPath
       clipPathUnits="userSpaceOnUse"
       id="clipPath28">
      <path
         d="M 0,1600 H 1600 V 0 H 0 Z"
         transform="translate(-257.59831,-920.00703)"
         id="path28" />
    </clipPath>
    <clipPath
       clipPathUnits="userSpaceOnUse"
       id="clipPath30">
      <path
         d="M 0,1600 H 1600 V 0 H 0 Z"
         transform="translate(-217.693,-991.08322)"
         id="path30" />
    </clipPath>
    <clipPath
       clipPathUnits="userSpaceOnUse"
       id="clipPath32">
      <path
         d="M 0,1600 H 1600 V 0 H 0 Z"
         transform="translate(-251.57731,-1011.1349)"
         id="path32" />
    </clipPath>
    <clipPath
       clipPathUnits="userSpaceOnUse"
       id="clipPath34">
      <path
         d="M 0,1600 H 1600 V 0 H 0 Z"
         transform="translate(-276.48991,-1058.754)"
         id="path34" />
    </clipPath>
    <clipPath
       clipPathUnits="userSpaceOnUse"
       id="clipPath36">
      <path
         d="M 0,1600 H 1600 V 0 H 0 Z"
         transform="translate(-306.73251,-1117.6222)"
         id="path36" />
    </clipPath>
    <clipPath
       clipPathUnits="userSpaceOnUse"
       id="clipPath38">
      <path
         d="M 0,1600 H 1600 V 0 H 0 Z"
         transform="translate(-373.73501,-1156.0031)"
         id="path38" />
    </clipPath>
    <clipPath
       clipPathUnits="userSpaceOnUse"
       id="clipPath40">
      <path
         d="M 0,1600 H 1600 V 0 H 0 Z"
         transform="translate(-382.46201,-1200.339)"
         id="path40" />
    </clipPath>
    <clipPath
       clipPathUnits="userSpaceOnUse"
       id="clipPath42">
      <path
         d="M 0,1600 H 1600 V 0 H 0 Z"
         transform="translate(-458.94491,-1238.7921)"
         id="path42" />
    </clipPath>
    <clipPath
       clipPathUnits="userSpaceOnUse"
       id="clipPath44">
      <path
         d="M 0,1600 H 1600 V 0 H 0 Z"
         transform="translate(-485.31361,-1311.381)"
         id="path44" />
    </clipPath>
    <clipPath
       clipPathUnits="userSpaceOnUse"
       id="clipPath46">
      <path
         d="M 0,1600 H 1600 V 0 H 0 Z"
         transform="translate(-533.14762,-1327.4757)"
         id="path46" />
    </clipPath>
    <clipPath
       clipPathUnits="userSpaceOnUse"
       id="clipPath48">
      <path
         d="M 0,1600 H 1600 V 0 H 0 Z"
         transform="translate(-583.26922,-1337.0792)"
         id="path48" />
    </clipPath>
    <clipPath
       clipPathUnits="userSpaceOnUse"
       id="clipPath50">
      <path
         d="M 0,1600 H 1600 V 0 H 0 Z"
         transform="translate(-660.15832,-1337.6222)"
         id="path50" />
    </clipPath>
    <clipPath
       clipPathUnits="userSpaceOnUse"
       id="clipPath52">
      <path
         d="M 0,1600 H 1600 V 0 H 0 Z"
         transform="translate(-678.12071,-1374.8156)"
         id="path52" />
    </clipPath>
    <clipPath
       clipPathUnits="userSpaceOnUse"
       id="clipPath54">
      <path
         d="M 0,1600 H 1600 V 0 H 0 Z"
         transform="translate(-757.16132,-1371.1818)"
         id="path54" />
    </clipPath>
    <clipPath
       clipPathUnits="userSpaceOnUse"
       id="clipPath56">
      <path
         d="M 0,1600 H 1600 V 0 H 0 Z"
         transform="translate(-802.171,-1355.3351)"
         id="path56" />
    </clipPath>
    <clipPath
       clipPathUnits="userSpaceOnUse"
       id="clipPath58">
      <path
         d="M 0,1600 H 1600 V 0 H 0 Z"
         transform="translate(-840.06265,-1399.0363)"
         id="path58" />
    </clipPath>
    <clipPath
       clipPathUnits="userSpaceOnUse"
       id="clipPath60">
      <path
         d="M 0,1600 H 1600 V 0 H 0 Z"
         transform="translate(-919.00315,-1401.1085)"
         id="path60" />
    </clipPath>
    <clipPath
       clipPathUnits="userSpaceOnUse"
       id="clipPath62">
      <path
         d="M 0,1600 H 1600 V 0 H 0 Z"
         transform="translate(-943.09292,-1369.9288)"
         id="path62" />
    </clipPath>
    <clipPath
       clipPathUnits="userSpaceOnUse"
       id="clipPath64">
      <path
         d="M 0,1600 H 1600 V 0 H 0 Z"
         transform="translate(-973.05482,-1327.63)"
         id="path64" />
    </clipPath>
    <clipPath
       clipPathUnits="userSpaceOnUse"
       id="clipPath66">
      <path
         d="M 0,1600 H 1600 V 0 H 0 Z"
         transform="translate(-1024.047,-1308.0665)"
         id="path66" />
    </clipPath>
    <clipPath
       clipPathUnits="userSpaceOnUse"
       id="clipPath68">
      <path
         d="M 0,1600 H 1600 V 0 H 0 Z"
         transform="translate(-1078.5207,-1321.3937)"
         id="path68" />
    </clipPath>
    <clipPath
       clipPathUnits="userSpaceOnUse"
       id="clipPath70">
      <path
         d="M 0,1600 H 1600 V 0 H 0 Z"
         transform="translate(-1157.8977,-1282.0656)"
         id="path70" />
    </clipPath>
    <clipPath
       clipPathUnits="userSpaceOnUse"
       id="clipPath72">
      <path
         d="M 0,1600 H 1600 V 0 H 0 Z"
         transform="translate(-1187.5773,-1198.0841)"
         id="path72" />
    </clipPath>
    <clipPath
       clipPathUnits="userSpaceOnUse"
       id="clipPath74">
      <path
         d="M 0,1600 H 1600 V 0 H 0 Z"
         transform="translate(-1231.5021,-1185.257)"
         id="path74" />
    </clipPath>
    <clipPath
       clipPathUnits="userSpaceOnUse"
       id="clipPath76">
      <path
         d="M 0,1600 H 1600 V 0 H 0 Z"
         transform="translate(-1232.5959,-1148.2423)"
         id="path76" />
    </clipPath>
    <clipPath
       clipPathUnits="userSpaceOnUse"
       id="clipPath78">
      <path
         d="M 0,1600 H 1600 V 0 H 0 Z"
         transform="translate(-1260.3253,-1110.7491)"
         id="path78" />
    </clipPath>
    <clipPath
       clipPathUnits="userSpaceOnUse"
       id="clipPath80">
      <path
         d="M 0,1600 H 1600 V 0 H 0 Z"
         transform="translate(-1300.5948,-1040.8507)"
         id="path80" />
    </clipPath>
    <clipPath
       clipPathUnits="userSpaceOnUse"
       id="clipPath82">
      <path
         d="M 0,1600 H 1600 V 0 H 0 Z"
         transform="translate(-1324.9299,-983.04222)"
         id="path82" />
    </clipPath>
    <clipPath
       clipPathUnits="userSpaceOnUse"
       id="clipPath84">
      <path
         d="M 0,1600 H 1600 V 0 H 0 Z"
         transform="translate(-1366.1847,-961.20142)"
         id="path84" />
    </clipPath>
    <clipPath
       clipPathUnits="userSpaceOnUse"
       id="clipPath86">
      <path
         d="M 0,1600 H 1600 V 0 H 0 Z"
         transform="translate(-1348.9992,-884.55582)"
         id="path86" />
    </clipPath>
    <clipPath
       clipPathUnits="userSpaceOnUse"
       id="clipPath88">
      <path
         d="M 0,1600 H 1600 V 0 H 0 Z"
         transform="translate(-1410.1738,-762.19452)"
         id="path88" />
    </clipPath>
    <clipPath
       clipPathUnits="userSpaceOnUse"
       id="clipPath90">
      <path
         d="M 0,1600 H 1600 V 0 H 0 Z"
         transform="translate(-1403.1115,-668.17692)"
         id="path90" />
    </clipPath>
    <clipPath
       clipPathUnits="userSpaceOnUse"
       id="clipPath92">
      <path
         d="M 0,1600 H 1600 V 0 H 0 Z"
         transform="translate(-1378.9474,-569.64109)"
         id="path92" />
    </clipPath>
    <clipPath
       clipPathUnits="userSpaceOnUse"
       id="clipPath94">
      <path
         d="M 0,1600 H 1600 V 0 H 0 Z"
         transform="translate(-1338.0123,-477.40871)"
         id="path94" />
    </clipPath>
    <clipPath
       clipPathUnits="userSpaceOnUse"
       id="clipPath96">
      <path
         d="M 0,1600 H 1600 V 0 H 0 Z"
         transform="translate(-1285.0383,-397.90721)"
         id="path96" />
    </clipPath>
    <clipPath
       clipPathUnits="userSpaceOnUse"
       id="clipPath98">
      <path
         d="M 0,1600 H 1600 V 0 H 0 Z"
         transform="translate(-1215.321,-324.10691)"
         id="path98" />
    </clipPath>
    <clipPath
       clipPathUnits="userSpaceOnUse"
       id="clipPath100">
      <path
         d="M 0,1600 H 1600 V 0 H 0 Z"
         transform="translate(-191.03001,-762.19452)"
         id="path100" />
    </clipPath>
    <clipPath
       clipPathUnits="userSpaceOnUse"
       id="clipPath102">
      <path
         d="M 0,1600 H 1600 V 0 H 0 Z"
         transform="translate(-198.0925,-668.17692)"
         id="path102" />
    </clipPath>
    <clipPath
       clipPathUnits="userSpaceOnUse"
       id="clipPath104">
      <path
         d="M 0,1600 H 1600 V 0 H 0 Z"
         transform="translate(-222.25651,-569.64109)"
         id="path104" />
    </clipPath>
    <clipPath
       clipPathUnits="userSpaceOnUse"
       id="clipPath106">
      <path
         d="M 0,1600 H 1600 V 0 H 0 Z"
         transform="translate(-263.1916,-477.40871)"
         id="path106" />
    </clipPath>
    <clipPath
       clipPathUnits="userSpaceOnUse"
       id="clipPath108">
      <path
         d="M 0,1600 H 1600 V 0 H 0 Z"
         transform="translate(-316.16551,-397.90721)"
         id="path108" />
    </clipPath>
    <clipPath
       clipPathUnits="userSpaceOnUse"
       id="clipPath110">
      <path
         d="M 0,1600 H 1600 V 0 H 0 Z"
         transform="translate(-385.88281,-324.10691)"
         id="path110" />
    </clipPath>
  </defs>
  <g
     inkscape:label="Layer 1"
     inkscape:groupmode="layer"
     id="layer1"
     transform="translate(108.21458,118.79792)">
    <g
       id="layer-MC5"
       inkscape:groupmode="layer"
       inkscape:label="logo"
       transform="matrix(0.26458333,0,0,0.26458333,-155.80914,-166.40552)">
      <path
         id="path1"
         d="m 0,0 c 0,-367.317 -297.77,-665.087 -665.087,-665.087 -367.317,0 -665.086,297.77 -665.086,665.087 0,367.317 297.769,665.087 665.086,665.087 C -297.77,665.087 0,367.317 0,0"
         style="fill:#d3d2d2;fill-opacity:1;fill-rule:nonzero;stroke:none"
         transform="matrix(1.3333333,0,0,-1.3333333,1953.4489,1066.7169)"
         clip-path="url(#clipPath2)" />
      <path
         id="path3"
         d="m 579.267,1263.043 h 440.569 V 1152.602 H 579.267 Z"
         style="fill:#ffffff;fill-opacity:1;fill-rule:nonzero;stroke:none"
         transform="matrix(1.3333333,0,0,-1.3333333,0,2133.3333)"
         clip-path="url(#clipPath4)" />
      <path
         id="path5"
         d="M 589.261,1154.585 H 1029.83 V 1042.162 H 589.261 Z"
         style="fill:#ee252c;fill-opacity:1;fill-rule:nonzero;stroke:#d2d4d1;stroke-width:1;stroke-linecap:butt;stroke-linejoin:miter;stroke-miterlimit:10;stroke-dasharray:none;stroke-opacity:1"
         transform="matrix(1.3333333,0,0,-1.3333333,0,2133.3333)"
         clip-path="url(#clipPath6)" />
      <path
         id="path7"
         d="M 1019.34,1049.85 H 579.465 v 198.157 h 439.875 z"
         style="fill:none;stroke:#d2d4d1;stroke-width:14.173;stroke-linecap:butt;stroke-linejoin:miter;stroke-miterlimit:10;stroke-dasharray:none;stroke-opacity:1"
         transform="matrix(1.3333333,0,0,-1.3333333,0,2133.3333)"
         clip-path="url(#clipPath8)" />
      <path
         id="path9"
         d="M 0,0 -103.765,51.602 102.083,465.54 205.848,413.939 Z"
         style="fill:#ffffff;fill-opacity:1;fill-rule:nonzero;stroke:none"
         transform="matrix(1.3333333,0,0,-1.3333333,1222.0287,1103.8748)"
         clip-path="url(#clipPath10)" />
      <path
         id="path11"
         d="M 0,0 -103.765,51.602 102.083,465.54 205.848,413.939 Z"
         style="fill:#ee252c;fill-opacity:1;fill-rule:nonzero;stroke:none"
         transform="matrix(1.3333333,0,0,-1.3333333,1360.1967,1173.0499)"
         clip-path="url(#clipPath12)" />
      <path
         id="path13"
         d="m 0,0 -200.623,-430.238 -193.374,90.172 231.052,495.491 z"
         style="fill:none;stroke:#d2d4d1;stroke-width:14.173;stroke-linecap:butt;stroke-linejoin:miter;stroke-miterlimit:10;stroke-dasharray:none;stroke-opacity:1"
         transform="matrix(1.3333333,0,0,-1.3333333,1577.4749,687.89533)"
         clip-path="url(#clipPath14)" />
      <path
         id="path15"
         d="m 0,0 -103.115,-52.89 -210.986,411.344 103.115,52.89 z"
         style="fill:#ee252c;fill-opacity:1;fill-rule:nonzero;stroke:none"
         transform="matrix(1.3333333,0,0,-1.3333333,907.75427,1085.9328)"
         clip-path="url(#clipPath16)" />
      <path
         id="path17"
         d="m 0,0 -103.115,-52.89 -210.986,411.344 103.115,52.89 z"
         style="fill:#ffffff;fill-opacity:1;fill-rule:nonzero;stroke:none"
         transform="matrix(1.3333333,0,0,-1.3333333,1045.4304,1015.7841)"
         clip-path="url(#clipPath18)" />
      <path
         id="path19"
         d="m 0,0 200.623,-430.238 193.374,90.172 -231.052,495.491 z"
         style="fill:none;stroke:#d2d4d1;stroke-width:14.173;stroke-linecap:butt;stroke-linejoin:miter;stroke-miterlimit:10;stroke-dasharray:none;stroke-opacity:1"
         transform="matrix(1.3333333,0,0,-1.3333333,555.9516,687.89533)"
         clip-path="url(#clipPath20)" />
      <path
         id="path21"
         d="M 0,0 C -74.256,0 -144.068,28.917 -196.576,81.424 -249.083,133.932 -278,203.743 -278,278 c 0,74.257 28.917,144.068 81.424,196.576 C -144.068,527.083 -74.256,556 0,556 74.257,556 144.068,527.083 196.576,474.576 249.083,422.068 278,352.257 278,278 278,203.743 249.083,133.932 196.576,81.424 144.068,28.917 74.257,0 0,0"
         style="fill:#0b8ed8;fill-opacity:1;fill-rule:nonzero;stroke:none"
         transform="matrix(1.3333333,0,0,-1.3333333,1066.6667,1755.85)"
         clip-path="url(#clipPath22)" />
      <path
         id="path23"
         d="m 0,0 c -38.603,0 -76.059,-7.564 -111.329,-22.482 -34.059,-14.405 -64.643,-35.025 -90.904,-61.285 -26.26,-26.261 -46.88,-56.845 -61.285,-90.904 C -278.436,-209.941 -286,-247.397 -286,-286 c 0,-38.603 7.564,-76.059 22.482,-111.329 14.405,-34.059 35.025,-64.643 61.285,-90.904 26.261,-26.26 56.845,-46.879 90.904,-61.285 C -76.059,-564.436 -38.603,-572 0,-572 c 38.603,0 76.059,7.564 111.329,22.482 34.059,14.406 64.643,35.025 90.904,61.285 26.26,26.261 46.88,56.845 61.285,90.904 14.918,35.27 22.482,72.726 22.482,111.329 0,38.603 -7.564,76.059 -22.482,111.329 -14.405,34.059 -35.025,64.643 -61.285,90.904 -26.261,26.26 -56.845,46.88 -90.904,61.285 C 76.059,-7.564 38.603,0 0,0 m 0,-16 c 149.117,0 270,-120.883 270,-270 0,-149.117 -120.883,-270 -270,-270 -149.117,0 -270,120.883 -270,270 0,149.117 120.883,270 270,270"
         style="fill:#d3d2d2;fill-opacity:1;fill-rule:nonzero;stroke:none"
         transform="matrix(1.3333333,0,0,-1.3333333,1066.6667,1003.8499)"
         clip-path="url(#clipPath24)" />
      <path
         id="path25"
         d="m 0,0 c -5.867,-5.867 -15.333,-5.867 -21.2,0 -4.933,4.933 -5.6,12.267 -2.4,18 L -52,46.4 h -62.133 c -0.4,-6.133 -2.134,-12 -4.667,-17.2 h 30.667 V -22.533 L -24.667,-86 c 5.734,3.2 13.067,2.533 18,-2.4 5.867,-5.867 5.867,-15.333 0,-21.2 -5.866,-5.867 -15.333,-5.867 -21.2,0 -4.933,4.933 -5.6,12.267 -2.4,18 l -65.866,65.867 V 21.333 H -124 c -4.933,-6 -11.333,-10.666 -18.667,-13.466 V -102.8 h -10.8 v -28 h 18.934 c 1.733,6.4 7.466,11.067 14.4,11.067 8.266,0 15.066,-6.667 15.066,-15.067 0,-8.267 -6.666,-15.067 -15.066,-15.067 -6.934,0 -12.667,4.667 -14.4,11.067 h -18.934 v -14.667 h 53.6 c 1.734,6.4 7.467,11.067 14.4,11.067 8.267,0 15.067,-6.667 15.067,-15.067 0,-8.266 -6.667,-15.066 -15.067,-15.066 -6.933,0 -12.666,4.666 -14.4,11.066 h -61.6 v 22.667 36 h -8.266 l -13.334,-13.333 H -331.2 c -1.733,-6.4 -7.467,-11.067 -14.4,-11.067 -8.267,0 -15.067,6.667 -15.067,15.067 0,8.266 6.667,15.066 15.067,15.066 6.933,0 12.667,-4.666 14.4,-11.066 h 144.8 l 11.6,11.466 v 10.8 h -132.933 v 68.8 c -6.4,1.734 -11.067,7.467 -11.067,14.4 0,8.267 6.667,15.067 15.067,15.067 8.266,0 15.066,-6.667 15.066,-15.067 0,-6.933 -4.666,-12.666 -11.066,-14.4 v -60.8 H -174.8 v 21.2 h -38.933 l -45.334,45.334 c -5.733,-3.2 -13.066,-2.534 -18,2.4 -5.866,5.866 -5.866,15.333 0,21.2 5.867,5.866 15.334,5.866 21.2,0 4.934,-4.934 5.6,-12.267 2.4,-18 L -210.4,-48.8 h 35.733 V 7.733 c -16.8,6.534 -28.666,22.667 -28.666,41.734 0,7.2 1.733,13.866 4.666,19.866 l -15.2,15.2 v 139.6 h 18 c 1.734,6.4 7.467,11.067 14.4,11.067 8.267,0 15.067,-6.667 15.067,-15.067 0,-8.266 -6.667,-15.066 -15.067,-15.066 -6.933,0 -12.666,4.666 -14.4,11.066 h -10 V 87.867 L -194.4,76.4 c 7.6,10.267 19.6,17.067 33.067,17.867 V 139.2 h 61.6 c 1.733,6.4 7.466,11.067 14.4,11.067 8.266,0 15.066,-6.667 15.066,-15.067 0,-8.267 -6.666,-15.067 -15.066,-15.067 -6.934,0 -12.667,4.667 -14.4,11.067 h -53.6 V 94.133 c 20.666,-2.4 36.933,-18.8 39.2,-39.466 h 65.6 l 30.8,-30.8 c 5.733,3.2 13.066,2.533 18,-2.4 C 5.867,15.333 5.867,5.867 0,0"
         style="fill:#ffffff;fill-opacity:1;fill-rule:nonzero;stroke:none"
         transform="matrix(1.3333333,0,0,-1.3333333,1278.4,1384.2943)"
         clip-path="url(#clipPath26)" />
      <path
         id="path27"
         d="m 0,0 -6.198,-33.334 -56.147,10.438 6.198,33.335 12.174,-2.263 -3.377,-18.165 8.833,-1.642 3.127,16.82 12.174,-2.263 -3.127,-16.821 10.6,-1.97 3.377,18.165 z"
         style="fill:#254aa5;fill-opacity:1;fill-rule:nonzero;stroke:none"
         transform="matrix(1.3333333,0,0,-1.3333333,343.4644,906.65733)"
         clip-path="url(#clipPath28)" />
      <path
         id="path29"
         d="m 0,0 33.068,-9.389 c 7.19,-2.043 12.179,-5.658 14.969,-10.849 2.79,-5.192 3.096,-11.619 0.92,-19.285 -2.128,-7.492 -5.678,-12.703 -10.653,-15.635 -4.974,-2.932 -11.056,-3.377 -18.246,-1.336 l -33.406,9.486 4.236,14.918 32.241,-9.155 c 3.883,-1.103 6.908,-1.177 9.074,-0.222 2.166,0.955 3.651,2.848 4.455,5.679 0.86,3.031 0.614,5.476 -0.74,7.337 -1.353,1.859 -4.008,3.351 -7.967,4.474 l -32.165,9.135 z"
         style="fill:#254aa5;fill-opacity:1;fill-rule:nonzero;stroke:none"
         transform="matrix(1.3333333,0,0,-1.3333333,290.25733,811.88907)"
         clip-path="url(#clipPath30)" />
      <path
         id="path31"
         d="m 0,0 1.064,2.688 c 1.986,5.011 0.763,8.395 -3.668,10.15 -3.655,1.448 -6.457,-0.285 -8.404,-5.2 L -12.13,4.806 Z m 10.786,-4.272 19.32,-7.655 -5.683,-14.345 -53.094,21.035 6.891,17.394 c 5.717,14.43 13.804,19.573 24.263,15.43 6.15,-2.436 9.719,-7.323 10.705,-14.66 L 42.45,19.233 36.005,2.963 12.225,-0.642 Z"
         style="fill:#254aa5;fill-opacity:1;fill-rule:nonzero;stroke:none"
         transform="matrix(1.3333333,0,0,-1.3333333,335.4364,785.15347)"
         clip-path="url(#clipPath32)" />
      <path
         id="path33"
         d="m 0,0 c 9.794,-5.098 16.465,-4.239 20.012,2.575 1.803,3.466 1.951,6.654 0.443,9.569 -1.507,2.912 -4.779,5.679 -9.815,8.3 C 5.581,23.077 1.402,24.173 -1.896,23.731 -5.193,23.289 -7.72,21.382 -9.475,18.01 -13.045,11.149 -9.887,5.146 0,0 m 18.142,34.858 c 8.524,-4.435 13.915,-9.898 16.174,-16.388 2.26,-6.49 1.291,-13.766 -2.904,-21.826 -4.136,-7.948 -9.536,-12.881 -16.201,-14.799 -6.664,-1.919 -14.258,-0.66 -22.782,3.777 -8.432,4.387 -13.774,9.846 -16.027,16.377 -2.253,6.529 -1.287,13.814 2.896,21.854 4.196,8.061 9.582,13.023 16.159,14.885 6.576,1.863 14.138,0.569 22.685,-3.88"
         style="fill:#254aa5;fill-opacity:1;fill-rule:nonzero;stroke:none"
         transform="matrix(1.3333333,0,0,-1.3333333,368.6532,721.66133)"
         clip-path="url(#clipPath34)" />
      <path
         id="path35"
         d="m 0,0 1.54,2.354 c 1.269,1.939 1.733,3.836 1.392,5.693 -0.34,1.857 -1.47,3.414 -3.388,4.668 -3.224,2.111 -6.006,1.379 -8.345,-2.194 L -10.982,7.187 Z M 8.035,25.832 C 13.374,22.339 16.467,18.066 17.316,13.014 18.164,7.961 16.692,2.537 12.899,-3.26 l -2.374,-3.628 15.852,-10.374 -8.448,-12.91 -47.787,31.271 10.823,16.539 c 3.95,6.036 8.234,9.706 12.853,11.008 4.619,1.304 9.358,0.366 14.217,-2.814"
         style="fill:#254aa5;fill-opacity:1;fill-rule:nonzero;stroke:none"
         transform="matrix(1.3333333,0,0,-1.3333333,408.97667,643.1704)"
         clip-path="url(#clipPath36)" />
      <path
         id="path37"
         d="m 0,0 -20.897,-26.701 -44.974,35.197 20.897,26.701 9.752,-7.633 -11.388,-14.549 7.075,-5.537 10.545,13.473 9.752,-7.631 -10.545,-13.474 8.491,-6.645 11.387,14.551 z"
         style="fill:#254aa5;fill-opacity:1;fill-rule:nonzero;stroke:none"
         transform="matrix(1.3333333,0,0,-1.3333333,498.31333,591.99587)"
         clip-path="url(#clipPath38)" />
      <path
         id="path39"
         d="m 0,0 -8.519,4.624 c -1.911,1.009 -4.352,2.346 -7.325,4.013 -2.972,1.665 -5.07,2.893 -6.292,3.684 0.808,-1.08 2.086,-2.915 3.835,-5.503 1.748,-2.589 5.076,-7.814 9.985,-15.673 z M 21.146,-11.605 11.418,-6.329 -1.284,-19.854 4.54,-29.289 -7.066,-41.646 -36.111,11.191 -22.019,26.197 32.698,0.695 Z"
         style="fill:#254aa5;fill-opacity:1;fill-rule:nonzero;stroke:none"
         transform="matrix(1.3333333,0,0,-1.3333333,509.94933,532.88133)"
         clip-path="url(#clipPath40)" />
      <path
         id="path41"
         d="M 0,0 -15.343,-13.191 -57.391,3.717 -57.657,3.488 c 4.5,-4.476 7.838,-7.977 10.011,-10.505 l 16.783,-19.519 -10.367,-8.913 -37.233,43.303 15.284,13.141 41.632,-16.545 0.177,0.154 c -4.028,4.125 -7.18,7.511 -9.455,10.158 l -16.834,19.578 10.427,8.965 z"
         style="fill:#254aa5;fill-opacity:1;fill-rule:nonzero;stroke:none"
         transform="matrix(1.3333333,0,0,-1.3333333,611.92653,481.61053)"
         clip-path="url(#clipPath42)" />
      <path
         id="path43"
         d="m 0,0 c -3.107,-1.957 -4.729,-4.757 -4.867,-8.397 -0.138,-3.642 1.202,-7.7 4.019,-12.172 5.857,-9.299 12.322,-11.721 19.395,-7.266 2.137,1.346 4.021,2.947 5.652,4.806 1.63,1.857 3.196,3.842 4.696,5.958 l 6.953,-11.039 c -2.909,-4.326 -6.908,-8.09 -11.998,-11.297 -7.294,-4.594 -14.218,-6 -20.771,-4.219 -6.555,1.781 -12.35,6.672 -17.388,14.671 -3.15,5.001 -4.977,9.991 -5.48,14.968 -0.503,4.976 0.372,9.597 2.624,13.863 2.254,4.266 5.77,7.904 10.553,10.916 5.222,3.289 10.928,5.298 17.117,6.026 L 12.979,4.021 C 10.667,3.733 8.438,3.313 6.292,2.763 4.147,2.212 2.049,1.29 0,0"
         style="fill:#254aa5;fill-opacity:1;fill-rule:nonzero;stroke:none"
         transform="matrix(1.3333333,0,0,-1.3333333,647.0848,384.82533)"
         clip-path="url(#clipPath44)" />
      <path
         id="path45"
         d="m 0,0 -0.794,23.334 14.912,7.561 -1.02,-39.54 10.087,-19.894 -13.867,-7.029 -9.874,19.474 -32.709,22.965 14.981,7.596 z"
         style="fill:#254aa5;fill-opacity:1;fill-rule:nonzero;stroke:none"
         transform="matrix(1.3333333,0,0,-1.3333333,710.86347,363.36573)"
         clip-path="url(#clipPath46)" />
      <path
         id="path47"
         d="m 0,0 4.388,-11.161 5.053,1.987 c 4.483,1.762 5.982,4.534 4.496,8.315 -0.696,1.769 -1.829,2.89 -3.4,3.364 C 8.965,2.979 7.04,2.768 4.762,1.872 Z m -4.13,10.506 4.325,1.701 c 2.06,0.81 3.488,1.859 4.281,3.151 0.794,1.291 0.861,2.774 0.204,4.446 -1.172,2.981 -4.012,3.585 -8.52,1.813 L -7.875,20.03 Z m -22.379,14.748 18.541,7.29 c 7.222,2.839 13.006,3.875 17.351,3.107 4.346,-0.768 7.409,-3.419 9.191,-7.95 1.172,-2.98 1.409,-5.826 0.711,-8.535 -0.698,-2.709 -2.176,-4.857 -4.433,-6.443 l 0.142,-0.365 c 3.639,0.423 6.598,-0.092 8.877,-1.546 2.278,-1.455 4.057,-3.806 5.334,-7.054 1.896,-4.822 1.577,-9.334 -0.955,-13.533 -2.532,-4.2 -6.924,-7.529 -13.177,-9.987 l -20.686,-8.133 z"
         style="fill:#254aa5;fill-opacity:1;fill-rule:nonzero;stroke:none"
         transform="matrix(1.3333333,0,0,-1.3333333,777.69227,350.56107)"
         clip-path="url(#clipPath48)" />
      <path
         id="path49"
         d="m 0,0 -32.523,-9.584 -16.144,54.779 32.524,9.584 3.5,-11.877 -17.723,-5.222 2.54,-8.618 16.411,4.836 3.5,-11.878 -16.411,-4.836 3.047,-10.342 17.723,5.222 z"
         style="fill:#254aa5;fill-opacity:1;fill-rule:nonzero;stroke:none"
         transform="matrix(1.3333333,0,0,-1.3333333,880.21107,349.83707)"
         clip-path="url(#clipPath50)" />
      <path
         id="path51"
         d="M 0,0 2.834,0.569 C 8.119,1.632 10.292,4.5 9.352,9.172 8.577,13.026 5.598,14.434 0.416,13.391 l -2.988,-0.6 z m 2.287,-11.375 4.096,-20.373 -15.127,-3.041 -11.257,55.988 18.344,3.689 C 13.559,27.947 22.276,23.963 24.494,12.934 25.798,6.447 23.641,0.795 18.022,-4.027 l 21.219,-21.114 -17.157,-3.45 -15.967,17.987 z"
         style="fill:#254aa5;fill-opacity:1;fill-rule:nonzero;stroke:none"
         transform="matrix(1.3333333,0,0,-1.3333333,904.16093,300.24587)"
         clip-path="url(#clipPath52)" />
      <path
         id="path53"
         d="m 0,0 c 0.386,-3.521 -0.165,-6.744 -1.652,-9.671 -1.487,-2.928 -3.831,-5.332 -7.03,-7.215 -3.2,-1.883 -7.065,-3.072 -11.594,-3.568 -3.78,-0.414 -6.98,-0.496 -9.601,-0.246 -2.621,0.25 -5.389,0.883 -8.303,1.9 l -1.497,13.668 c 3.089,-1.181 6.259,-2.019 9.51,-2.514 3.25,-0.496 6.195,-0.599 8.836,-0.31 2.278,0.25 3.904,0.827 4.879,1.733 0.975,0.906 1.394,1.98 1.259,3.223 -0.085,0.776 -0.373,1.433 -0.865,1.968 -0.49,0.536 -1.241,1.05 -2.251,1.542 -1.01,0.491 -3.661,1.432 -7.952,2.823 -3.887,1.276 -6.842,2.604 -8.865,3.98 -2.024,1.375 -3.595,3.038 -4.712,4.985 -1.117,1.947 -1.829,4.319 -2.135,7.115 -0.572,5.229 0.884,9.514 4.369,12.857 3.484,3.341 8.553,5.377 15.207,6.106 5.876,0.643 12.017,-0.06 18.424,-2.108 L -7.374,23.909 c -5.573,1.852 -10.289,2.568 -14.146,2.145 -1.993,-0.218 -3.404,-0.727 -4.234,-1.525 -0.829,-0.798 -1.187,-1.716 -1.074,-2.751 0.122,-1.113 0.807,-2.047 2.056,-2.8 1.248,-0.754 4.549,-2.016 9.904,-3.788 5.134,-1.664 8.79,-3.654 10.97,-5.97 C -1.719,6.905 -0.42,3.831 0,0"
         style="fill:#254aa5;fill-opacity:1;fill-rule:nonzero;stroke:none"
         transform="matrix(1.3333333,0,0,-1.3333333,1009.5484,305.09093)"
         clip-path="url(#clipPath54)" />
      <path
         id="path55"
         d="m 0,0 -33.894,-0.953 -1.604,57.088 33.893,0.952 0.348,-12.378 -18.47,-0.52 0.253,-8.98 17.102,0.48 0.348,-12.377 -17.102,-0.481 0.303,-10.776 18.469,0.518 z"
         style="fill:#254aa5;fill-opacity:1;fill-rule:nonzero;stroke:none"
         transform="matrix(1.3333333,0,0,-1.3333333,1069.5613,326.21987)"
         clip-path="url(#clipPath56)" />
      <path
         id="path57"
         d="m 0,0 c -3.666,0.206 -6.611,-1.134 -8.834,-4.021 -2.224,-2.887 -3.484,-6.969 -3.782,-12.248 -0.619,-10.972 3.244,-16.694 11.59,-17.165 2.521,-0.142 4.985,0.071 7.391,0.639 2.406,0.569 4.832,1.279 7.281,2.133 L 12.91,-43.688 c -4.877,-1.837 -10.318,-2.587 -16.324,-2.248 -8.607,0.486 -15.064,3.354 -19.37,8.606 -4.308,5.25 -6.195,12.596 -5.662,22.033 0.333,5.902 1.737,11.026 4.213,15.373 2.475,4.346 5.867,7.604 10.175,9.774 4.31,2.17 9.285,3.095 14.927,2.777 6.162,-0.348 11.976,-2.02 17.441,-5.014 L 12.906,-4.25 C 10.855,-3.144 8.797,-2.193 6.729,-1.397 4.661,-0.604 2.418,-0.137 0,0"
         style="fill:#254aa5;fill-opacity:1;fill-rule:nonzero;stroke:none"
         transform="matrix(1.3333333,0,0,-1.3333333,1120.0835,267.9516)"
         clip-path="url(#clipPath58)" />
      <path
         id="path59"
         d="m 0,0 -5.279,-33.967 c -1.148,-7.386 -4.127,-12.779 -8.939,-16.182 -4.811,-3.404 -11.154,-4.494 -19.028,-3.269 -7.694,1.195 -13.301,4.082 -16.818,8.662 -3.519,4.578 -4.705,10.561 -3.556,17.945 l 5.332,34.316 15.324,-2.382 -5.146,-33.117 c -0.62,-3.99 -0.325,-7 0.888,-9.033 1.212,-2.034 3.273,-3.276 6.181,-3.729 3.113,-0.483 5.51,0.06 7.191,1.631 1.68,1.57 2.836,4.388 3.468,8.454 l 5.135,33.04 z"
         style="fill:#254aa5;fill-opacity:1;fill-rule:nonzero;stroke:none"
         transform="matrix(1.3333333,0,0,-1.3333333,1225.3375,265.18867)"
         clip-path="url(#clipPath60)" />
      <path
         id="path61"
         d="m 0,0 2.798,-0.729 c 5.217,-1.357 8.425,0.271 9.625,4.883 0.99,3.805 -1.073,6.373 -6.19,7.705 L 3.285,12.626 Z M -2.921,-11.229 -8.153,-31.34 -23.086,-27.455 -8.707,27.814 9.4,23.104 C 24.422,19.195 30.516,11.798 27.684,0.91 26.019,-5.491 21.604,-9.631 14.443,-11.508 l 9.84,-28.27 -16.936,4.405 -6.488,23.161 z"
         style="fill:#254aa5;fill-opacity:1;fill-rule:nonzero;stroke:none"
         transform="matrix(1.3333333,0,0,-1.3333333,1257.4572,306.7616)"
         clip-path="url(#clipPath62)" />
      <path
         id="path63"
         d="M 0,0 18.549,54.014 33.216,48.977 14.667,-5.037 Z"
         style="fill:#254aa5;fill-opacity:1;fill-rule:nonzero;stroke:none"
         transform="matrix(1.3333333,0,0,-1.3333333,1297.4064,363.16)"
         clip-path="url(#clipPath64)" />
      <path
         id="path65"
         d="M 0,0 -14.199,6.036 3.205,46.983 -9.629,52.438 -4.693,64.05 35.139,47.118 30.203,35.507 17.405,40.946 Z"
         style="fill:#254aa5;fill-opacity:1;fill-rule:nonzero;stroke:none"
         transform="matrix(1.3333333,0,0,-1.3333333,1365.396,389.24467)"
         clip-path="url(#clipPath66)" />
      <path
         id="path67"
         d="M 0,0 18.672,14.019 33.411,6.127 0.419,-15.688 l -10.528,-19.664 -13.706,7.338 10.306,19.251 0.085,39.966 14.809,-7.929 z"
         style="fill:#254aa5;fill-opacity:1;fill-rule:nonzero;stroke:none"
         transform="matrix(1.3333333,0,0,-1.3333333,1438.0275,371.47507)"
         clip-path="url(#clipPath68)" />
      <path
         id="path69"
         d="m 0,0 c -2.967,2.164 -6.167,2.637 -9.602,1.419 -3.434,-1.218 -6.709,-3.963 -9.824,-8.233 -6.475,-8.881 -6.336,-15.783 0.418,-20.708 2.041,-1.488 4.226,-2.647 6.556,-3.475 2.328,-0.828 4.752,-1.549 7.271,-2.161 l -7.687,-10.541 c -5.094,1.103 -10.07,3.428 -14.931,6.972 -6.965,5.08 -10.831,10.993 -11.598,17.741 -0.768,6.748 1.633,13.941 7.204,21.579 3.482,4.776 7.443,8.317 11.881,10.625 4.439,2.306 9.056,3.202 13.853,2.686 C -1.663,15.387 3.018,13.465 7.584,10.135 12.57,6.498 16.546,1.938 19.511,-3.543 L 8.533,-10.574 C 7.412,-8.531 6.198,-6.615 4.894,-4.824 3.588,-3.035 1.957,-1.426 0,0"
         style="fill:#254aa5;fill-opacity:1;fill-rule:nonzero;stroke:none"
         transform="matrix(1.3333333,0,0,-1.3333333,1543.8635,423.91253)"
         clip-path="url(#clipPath70)" />
      <path
         id="path71"
         d="M 0,0 -11.573,10.322 3.924,27.696 -9.457,39.632 -24.954,22.257 -36.527,32.579 1.487,75.198 13.061,64.876 -1.032,49.076 12.348,37.142 26.44,52.942 38.014,42.62 Z"
         style="fill:#254aa5;fill-opacity:1;fill-rule:nonzero;stroke:none"
         transform="matrix(1.3333333,0,0,-1.3333333,1583.4364,535.88787)"
         clip-path="url(#clipPath72)" />
      <path
         id="path73"
         d="m 0,0 5.265,8.139 c 1.152,1.827 2.673,4.158 4.563,6.994 1.89,2.836 3.276,4.832 4.158,5.99 C 12.847,20.4 10.92,19.268 8.204,17.723 5.488,16.179 0.023,13.262 -8.19,8.973 Z m -13.197,-20.191 6.009,9.293 L -19.697,2.806 -29.551,-2.275 -40.98,10.246 13.934,35.145 27.812,19.939 -1.82,-32.654 Z"
         style="fill:#254aa5;fill-opacity:1;fill-rule:nonzero;stroke:none"
         transform="matrix(1.3333333,0,0,-1.3333333,1642.0028,552.99067)"
         clip-path="url(#clipPath74)" />
      <path
         id="path75"
         d="m 0,0 45.536,34.468 9.312,-12.303 -35.6,-26.947 13.273,-17.535 -9.935,-7.521 z"
         style="fill:#254aa5;fill-opacity:1;fill-rule:nonzero;stroke:none"
         transform="matrix(1.3333333,0,0,-1.3333333,1643.4611,602.3436)"
         clip-path="url(#clipPath76)" />
      <path
         id="path77"
         d="M 0,0 48.26,30.537 56.51,17.499 18.781,-6.375 30.54,-24.959 20.011,-31.622 Z"
         style="fill:#254aa5;fill-opacity:1;fill-rule:nonzero;stroke:none"
         transform="matrix(1.3333333,0,0,-1.3333333,1680.4337,652.33453)"
         clip-path="url(#clipPath78)" />
      <path
         id="path79"
         d="m 0,0 -15.722,30.041 50.6,26.48 L 50.6,26.479 39.628,20.738 31.062,37.108 23.101,32.942 31.034,17.783 20.062,12.042 12.13,27.201 l -9.553,-5 8.568,-16.369 z"
         style="fill:#254aa5;fill-opacity:1;fill-rule:nonzero;stroke:none"
         transform="matrix(1.3333333,0,0,-1.3333333,1734.1264,745.5324)"
         clip-path="url(#clipPath80)" />
      <path
         id="path81"
         d="M 0,0 -7.598,18.754 21.86,53.193 21.729,53.519 C 16.049,50.685 11.664,48.643 8.575,47.391 l -23.858,-9.666 -5.134,12.671 52.931,21.444 7.568,-18.682 -28.98,-34.162 0.087,-0.218 c 5.197,2.499 9.413,4.404 12.648,5.714 l 23.931,9.696 5.163,-12.745 z"
         style="fill:#254aa5;fill-opacity:1;fill-rule:nonzero;stroke:none"
         transform="matrix(1.3333333,0,0,-1.3333333,1766.5731,822.6104)"
         clip-path="url(#clipPath82)" />
      <path
         id="path83"
         d="m 0,0 6.717,-23.716 -29.616,-8.388 c -4.03,5.816 -7.137,12.582 -9.323,20.298 -2.398,8.47 -1.797,15.711 1.805,21.725 3.602,6.014 9.95,10.309 19.046,12.885 8.87,2.511 16.489,1.935 22.859,-1.727 6.369,-3.664 10.846,-10.056 13.429,-19.176 0.979,-3.459 1.577,-6.814 1.796,-10.068 0.217,-3.254 0.147,-6.162 -0.208,-8.727 l -12.982,1.399 c 0.833,4.513 0.58,9.137 -0.762,13.872 -1.228,4.335 -3.586,7.286 -7.075,8.856 -3.49,1.569 -7.853,1.613 -13.09,0.129 -5.137,-1.455 -8.748,-3.634 -10.835,-6.539 -2.087,-2.906 -2.559,-6.375 -1.416,-10.41 0.624,-2.204 1.412,-4.174 2.363,-5.907 l 8.606,2.438 -2.778,9.809 z"
         style="fill:#254aa5;fill-opacity:1;fill-rule:nonzero;stroke:none"
         transform="matrix(1.3333333,0,0,-1.3333333,1821.5796,851.73147)"
         clip-path="url(#clipPath84)" />
      <path
         id="path85"
         d="M 0,0 -6.21,33.332 49.934,43.791 56.144,10.458 43.97,8.189 40.586,26.354 31.754,24.709 34.887,7.889 22.714,5.621 19.58,22.441 8.981,20.467 12.365,2.303 Z"
         style="fill:#254aa5;fill-opacity:1;fill-rule:nonzero;stroke:none"
         transform="matrix(1.3333333,0,0,-1.3333333,1798.6655,953.9256)"
         clip-path="url(#clipPath86)" />
      <path
         id="path87"
         d="M 0,0 -25.55,19.162 -52.184,0.155 -41.848,30.35 -68.172,49.823 -36.274,49.319 -25.899,80.367 -16.492,49.861 16.259,49.59 -9.872,31.202 Z"
         style="fill:#ffffff;fill-opacity:1;fill-rule:nonzero;stroke:none"
         transform="matrix(1.3333333,0,0,-1.3333333,1880.2317,1117.074)"
         clip-path="url(#clipPath88)" />
      <path
         id="path89"
         d="M 0,0 -25.55,19.162 -52.185,0.155 -41.848,30.35 -68.172,49.823 -36.274,49.319 -25.899,80.367 -16.492,49.861 16.259,49.59 -9.872,31.202 Z"
         style="fill:#ffffff;fill-opacity:1;fill-rule:nonzero;stroke:none"
         transform="matrix(1.3333333,0,0,-1.3333333,1870.8153,1242.4308)"
         clip-path="url(#clipPath90)" />
      <path
         id="path91"
         d="M 0,0 -25.55,19.162 -52.185,0.155 -41.848,30.35 -68.172,49.823 -36.274,49.319 -25.899,80.367 -16.492,49.861 16.259,49.59 -9.872,31.202 Z"
         style="fill:#ffffff;fill-opacity:1;fill-rule:nonzero;stroke:none"
         transform="matrix(1.3333333,0,0,-1.3333333,1838.5965,1373.8119)"
         clip-path="url(#clipPath92)" />
      <path
         id="path93"
         d="M 0,0 -25.55,19.162 -52.185,0.155 -41.848,30.35 -68.172,49.823 -36.274,49.319 -25.899,80.367 -16.492,49.861 16.259,49.59 -9.872,31.202 Z"
         style="fill:#ffffff;fill-opacity:1;fill-rule:nonzero;stroke:none"
         transform="matrix(1.3333333,0,0,-1.3333333,1784.0164,1496.7884)"
         clip-path="url(#clipPath94)" />
      <path
         id="path95"
         d="M 0,0 -25.55,19.162 -52.184,0.155 -41.848,30.35 -68.172,49.823 -36.274,49.319 -25.899,80.367 -16.492,49.861 16.259,49.59 -9.872,31.202 Z"
         style="fill:#ffffff;fill-opacity:1;fill-rule:nonzero;stroke:none"
         transform="matrix(1.3333333,0,0,-1.3333333,1713.3844,1602.7904)"
         clip-path="url(#clipPath96)" />
      <path
         id="path97"
         d="M 0,0 -25.55,19.162 -52.184,0.155 -41.848,30.35 -68.172,49.823 -36.274,49.319 -25.899,80.367 -16.492,49.861 16.259,49.59 -9.872,31.202 Z"
         style="fill:#ffffff;fill-opacity:1;fill-rule:nonzero;stroke:none"
         transform="matrix(1.3333333,0,0,-1.3333333,1620.428,1701.1908)"
         clip-path="url(#clipPath98)" />
      <path
         id="path99"
         d="M 0,0 25.55,19.162 52.184,0.155 41.848,30.35 68.172,49.823 36.274,49.319 25.899,80.367 16.492,49.861 -16.259,49.59 9.872,31.202 Z"
         style="fill:#ffffff;fill-opacity:1;fill-rule:nonzero;stroke:none"
         transform="matrix(1.3333333,0,0,-1.3333333,254.70667,1117.074)"
         clip-path="url(#clipPath100)" />
      <path
         id="path101"
         d="M 0,0 25.55,19.162 52.184,0.155 41.848,30.35 68.172,49.823 36.274,49.319 25.899,80.367 16.492,49.861 -16.259,49.59 9.872,31.202 Z"
         style="fill:#ffffff;fill-opacity:1;fill-rule:nonzero;stroke:none"
         transform="matrix(1.3333333,0,0,-1.3333333,264.12333,1242.4308)"
         clip-path="url(#clipPath102)" />
      <path
         id="path103"
         d="M 0,0 25.55,19.162 52.184,0.155 41.848,30.35 68.172,49.823 36.274,49.319 25.899,80.367 16.492,49.861 -16.259,49.59 9.872,31.202 Z"
         style="fill:#ffffff;fill-opacity:1;fill-rule:nonzero;stroke:none"
         transform="matrix(1.3333333,0,0,-1.3333333,296.342,1373.8119)"
         clip-path="url(#clipPath104)" />
      <path
         id="path105"
         d="M 0,0 25.55,19.162 52.185,0.155 41.848,30.35 68.172,49.823 36.274,49.319 25.899,80.367 16.492,49.861 -16.259,49.59 9.872,31.202 Z"
         style="fill:#ffffff;fill-opacity:1;fill-rule:nonzero;stroke:none"
         transform="matrix(1.3333333,0,0,-1.3333333,350.92213,1496.7884)"
         clip-path="url(#clipPath106)" />
      <path
         id="path107"
         d="M 0,0 25.55,19.162 52.184,0.155 41.848,30.35 68.172,49.823 36.274,49.319 25.899,80.367 16.492,49.861 -16.259,49.59 9.872,31.202 Z"
         style="fill:#ffffff;fill-opacity:1;fill-rule:nonzero;stroke:none"
         transform="matrix(1.3333333,0,0,-1.3333333,421.554,1602.7904)"
         clip-path="url(#clipPath108)" />
      <path
         id="path109"
         d="M 0,0 25.55,19.162 52.185,0.155 41.848,30.35 68.172,49.823 36.274,49.319 25.899,80.367 16.492,49.861 -16.259,49.59 9.872,31.202 Z"
         style="fill:#ffffff;fill-opacity:1;fill-rule:nonzero;stroke:none"
         transform="matrix(1.3333333,0,0,-1.3333333,514.5104,1701.1908)"
         clip-path="url(#clipPath110)" />
      <path
         id="path111"
         d="M 44.61136,-33.551254 35.967528,-1.2694067e-4 29.097492,-0.00470297 23.941543,-19.124391 c -0.12515,-0.419929 -0.266671,-0.968857 -0.424562,-1.646784 -0.159537,-0.674125 -0.322187,-1.387976 -0.492319,-2.136674 -0.169055,-0.745974 -0.317635,-1.440186 -0.444662,-2.079912 -0.123734,-0.64733 -0.203915,-1.160661 -0.244345,-1.541639 -0.0254,0.381814 -0.09862,0.88966 -0.216922,1.522462 -0.119951,0.636603 -0.257508,1.324278 -0.41704,2.067904 -0.154084,0.74147 -0.31134,1.458991 -0.471769,2.152563 -0.157135,0.685968 -0.298579,1.252308 -0.422176,1.70447 L 15.703372,5.280143e-4 8.8594421,-0.00177181 0.21604302,-33.545183 l 6.12364908,-0.0026 4.6075059,19.134994 c 0.134812,0.595689 0.278065,1.260503 0.436283,1.995011 0.164744,0.735076 0.326134,1.493533 0.485248,2.278095 0.156959,0.7791138 0.291167,1.5325704 0.402624,2.2603702 0.117983,0.7283689 0.219414,1.3750693 0.303724,1.9466275 0.07517,-0.5905321 0.174012,-1.2565939 0.294896,-1.9943837 0.124177,-0.7453936 0.259251,-1.4950977 0.406869,-2.252914 0.150912,-0.765421 0.303857,-1.493839 0.458837,-2.185255 0.160429,-0.693572 0.309597,-1.288172 0.439902,-1.787095 l 5.242696,-19.401891 5.912534,0.0053 5.317956,19.433672 c 0.124279,0.505339 0.266126,1.110848 0.426112,1.81 0.165434,0.696997 0.31985,1.429858 0.465973,2.197505 0.153726,0.7709404 0.290149,1.5140689 0.415797,2.2299543 0.133251,0.7191789 0.228156,1.3653103 0.288516,1.9400408 0.104151,-0.772128 0.247942,-1.6670556 0.428081,-2.6771789 0.187743,-1.0068299 0.388599,-2.0282982 0.603646,-3.0616812 0.214478,-1.026857 0.420928,-1.94657 0.61992,-2.765665 l 4.590899,-19.106259 z m 0,0"
         style="fill:#231f20;fill-opacity:1;fill-rule:nonzero;stroke:none"
         aria-label="W"
         transform="matrix(1.2398582,0.49043802,-0.49043802,1.2398582,727.38187,1811.6845)" />
      <path
         id="path112"
         d="M 25.023327,0.00417211 22.072656,-8.783574 9.4763738,-8.7821936 6.5458574,-2.4627887e-4 0.00127391,6.5626773e-4 12.24366,-33.682083 l 7.133866,-0.0081 12.227442,33.69369725 z M 20.543531,-14.004216 17.66962,-22.632098 c -0.133157,-0.455783 -0.318127,-1.061072 -0.554911,-1.815868 -0.233029,-0.762182 -0.473382,-1.537384 -0.721969,-2.32839 -0.242108,-0.790037 -0.444144,-1.476043 -0.608893,-2.057109 -0.139465,0.630923 -0.3315,1.365261 -0.57429,2.208585 -0.239035,0.835937 -0.471221,1.617257 -0.701222,2.348563 -0.223521,0.732276 -0.383745,1.280605 -0.485333,1.64959 l -2.896105,8.622824 z m 0,0"
         style="fill:#231f20;fill-opacity:1;fill-rule:nonzero;stroke:none"
         aria-label="A"
         transform="matrix(1.2676899,0.41320722,-0.41320722,1.2676899,784.026,1833.7643)" />
      <path
         id="path113"
         d="m 13.913355,-33.55379 c 2.945168,0.0017 5.384513,0.365428 7.313673,1.086253 1.924797,0.715937 3.360979,1.801344 4.307011,3.250564 0.943972,1.452816 1.41678,3.294648 1.416365,5.529091 -0.0033,1.597716 -0.308039,2.979774 -0.914191,4.146174 -0.599729,1.167692 -1.383986,2.136557 -2.354831,2.91019 -0.973672,0.774401 -2.024264,1.399685 -3.157431,1.877388 L 30.177204,0.00140654 23.303261,-0.00208377 15.2188,-13.22857 10.497065,-13.22147 10.493765,0.00326713 4.3361831,-4.4678056e-4 4.3332005,-33.551023 Z m -0.440385,5.08611 -2.98475,0.009 0.0041,10.211228 3.181052,-0.0016 c 2.483173,-3.38e-4 4.275124,-0.444423 5.371736,-1.325065 1.100731,-0.887832 1.654885,-2.201009 1.663228,-3.936702 1.78e-4,-1.78812 -0.594027,-3.059655 -1.776963,-3.816142 -1.176513,-0.755194 -2.997874,-1.134926 -5.458428,-1.14073 z m 0,0"
         style="fill:#231f20;fill-opacity:1;fill-rule:nonzero;stroke:none"
         aria-label="R"
         transform="matrix(1.2867389,0.34940049,-0.34940049,1.2867389,824.81093,1847.0207)" />
      <path
         id="path114"
         d="m 23.868093,-9.2005098 c 0.0027,1.9866914 -0.479619,3.6974931 -1.445535,5.1381233 -0.967497,1.4469874 -2.366598,2.5611417 -4.200802,3.34024258 C 16.394549,0.06139748 14.203991,0.45482706 11.652941,0.4575059 10.458767,0.46017973 9.3070811,0.38431459 8.1928049,0.23404746 7.0798065,0.08949867 6.0182098,-0.12057099 5.0130942,-0.40029851 4.0149748,-0.67558548 3.0809716,-1.0132306 2.2155251,-1.4202299 l 0.00848,-5.7656188 c 1.470119,0.6411207 3.0504363,1.2245957 4.7380927,1.7510638 1.6920969,0.5194721 3.4035872,0.7764438 5.1322512,0.7744132 1.321287,0.00194 2.399595,-0.1699655 3.234284,-0.5185857 0.839129,-0.3556164 1.468373,-0.8444494 1.882016,-1.4652213 0.412364,-0.6264902 0.619316,-1.3661828 0.621496,-2.2162186 -1.37e-4,-0.9275688 -0.275936,-1.7184907 -0.830259,-2.3721267 -0.547964,-0.652055 -1.343096,-1.254883 -2.385395,-1.808484 -1.046435,-0.558681 -2.308682,-1.156193 -3.787378,-1.795397 -0.9629944,-0.400212 -1.9311628,-0.877318 -2.9010077,-1.429097 -0.973982,-0.556859 -1.8572044,-1.218053 -2.6512487,-1.977225 -0.7896037,-0.766168 -1.4262168,-1.680596 -1.9098391,-2.743285 -0.4877593,-1.067768 -0.7317049,-2.33411 -0.7289776,-3.799666 0.00343,-1.946024 0.4616172,-3.603412 1.373272,-4.977883 0.9160955,-1.381466 2.2119945,-2.433534 3.8921378,-3.1632 1.6760062,-0.734745 3.6470153,-1.103131 5.9130273,-1.105157 1.736298,0.0053 3.394008,0.196208 4.966772,0.571235 1.573402,0.377887 3.151132,0.922914 4.73541,1.631586 l -1.97079,4.883254 c -1.439244,-0.596987 -2.789359,-1.063794 -4.047486,-1.401058 -1.262265,-0.342344 -2.56087,-0.511461 -3.896453,-0.510209 -1.041329,0.0015 -1.93248,0.16465 -2.676314,0.489966 -0.739394,0.31832 -1.2974948,0.776246 -1.6749419,1.370918 -0.3730065,0.587676 -0.5622283,1.272374 -0.5632249,2.047097 0.00458,0.920573 0.2447568,1.686433 0.7183197,2.301078 0.4780035,0.607649 1.2114481,1.176231 2.1946151,1.707022 0.983805,0.53365 2.239391,1.141657 3.769616,1.823382 1.788684,0.777069 3.313988,1.597983 4.572415,2.46052 1.262867,0.85554 2.23167,1.872853 2.902911,3.049718 0.675681,1.169869 1.016149,2.639789 1.020767,4.4068992 z m 0,0"
         style="fill:#231f20;fill-opacity:1;fill-rule:nonzero;stroke:none"
         aria-label="S"
         transform="matrix(1.3012421,0.29076932,-0.29076932,1.3012421,864.5752,1857.7312)" />
      <path
         id="path115"
         d="M 25.021536,0.00322049 22.08634,-8.7978864 9.4882446,-8.7899796 6.5432652,-0.0048254 5.0944056e-4,2.184241e-4 12.23571,-33.697344 l 7.138104,-0.0024 12.22713,33.70334565 z M 20.54359,-14.000243 17.661837,-22.632258 c -0.128138,-0.459382 -0.311949,-1.066645 -0.545157,-1.819914 -0.237104,-0.758535 -0.480131,-1.533878 -0.728573,-2.323143 -0.252339,-0.79453 -0.449812,-1.479706 -0.597177,-2.048743 -0.152744,0.621658 -0.351263,1.355446 -0.590293,2.197466 -0.234271,0.835237 -0.462208,1.621774 -0.681434,2.356218 -0.223122,0.729179 -0.388516,1.278696 -0.496686,1.645665 l -2.890491,8.620932 z m 0,0"
         style="fill:#231f20;fill-opacity:1;fill-rule:nonzero;stroke:none"
         aria-label="A"
         transform="matrix(1.3132981,0.23027362,-0.23027362,1.3132981,898.8236,1865.4605)" />
      <path
         id="path116"
         d="M 44.614384,-33.548951 35.966475,0.00516928 29.090806,-7.0253653e-4 23.936368,-19.115062 c -0.127341,-0.424963 -0.268746,-0.975116 -0.421303,-1.650785 -0.155142,-0.67243 -0.317774,-1.385293 -0.487897,-2.138587 -0.172706,-0.750057 -0.321404,-1.443848 -0.446418,-2.084285 -0.12858,-0.645934 -0.209763,-1.15863 -0.243875,-1.541001 -0.03674,0.381487 -0.112152,0.891138 -0.229795,1.523459 -0.117315,0.635232 -0.252035,1.325486 -0.403831,2.073672 -0.146628,0.74171 -0.302021,1.457871 -0.465855,2.151395 -0.158664,0.687047 -0.301298,1.254369 -0.422405,1.6984 L 15.70702,0.00522443 8.854642,-0.00326396 0.21570092,-33.549298 l 6.13153658,-0.0049 4.5915295,19.142221 c 0.143072,0.591239 0.296906,1.252023 0.459243,1.988504 0.159426,0.736808 0.315646,1.49756 0.46866,2.282258 0.158182,0.7782214 0.293041,1.5325295 0.407815,2.2655091 0.119943,0.7265027 0.219082,1.3727953 0.300002,1.9356392 0.07629,-0.5805058 0.172544,-1.2458007 0.295227,-1.9907163 0.119771,-0.7445884 0.256683,-1.4940507 0.407498,-2.250971 0.15016,-0.762743 0.304246,-1.49055 0.461929,-2.186331 0.163834,-0.693525 0.309347,-1.287703 0.436539,-1.782535 l 5.249944,-19.39878 5.907656,-0.0033 5.310141,19.450641 c 0.132606,0.498075 0.279571,1.097721 0.438311,1.802177 0.155174,0.698959 0.30845,1.43351 0.459501,2.20074 0.148467,0.7704676 0.287841,1.5124761 0.415536,2.2292635 0.133519,0.7161332 0.235242,1.3591874 0.298694,1.9239937 0.103579,-0.7575099 0.242914,-1.6428578 0.421244,-2.6534592 0.174765,-1.0160971 0.372166,-2.040634 0.586381,-3.072955 0.220365,-1.030064 0.435364,-1.950446 0.644996,-2.761143 l 4.574764,-19.110665 z m 0,0"
         style="fill:#231f20;fill-opacity:1;fill-rule:nonzero;stroke:none"
         aria-label="W"
         transform="matrix(1.3249982,0.14885386,-0.14885386,1.3249982,941.35307,1873.1589)" />
      <path
         id="path117"
         d="m 9.637046,-5.4596667 0.3517716,0.5288948 C 9.708562,-3.8319514 9.3459724,-2.6455238 8.9068956,-1.3718727 8.4730904,-0.10737518 8.0045878,1.1652698 7.501196,2.4431388 7.003651,3.7206244 6.4923511,4.9226765 5.9647562,6.0553338 l -4.3801294,0.0054 C 1.8931089,4.8103278 2.1954084,3.5104149 2.4915251,2.1609958 2.7845268,0.80884501 3.0584066,-0.52149987 3.3096661,-1.8386173 3.5576187,-3.1613899 3.7602353,-4.369622 3.9177078,-5.4603903 Z m 0,0"
         style="fill:#231f20;fill-opacity:1;fill-rule:nonzero;stroke:none"
         aria-label=","
         transform="matrix(1.3304753,0.08725437,-0.08725437,1.3304753,1001.4088,1879.3957)" />
      <path
         id="path118"
         d=""
         style="fill:#231f20;fill-opacity:1;fill-rule:nonzero;stroke:none"
         aria-label=" "
         transform="matrix(1.3319396,0.06094761,-0.06094761,1.3319396,1018.6693,1880.526)" />
      <path
         id="path119"
         d="m 14.457393,-33.555306 c 4.327506,-6.86e-4 7.488975,0.904513 9.481439,2.712707 1.998246,1.802258 3.000813,4.317737 3.004731,7.543545 -0.0045,1.453307 -0.232504,2.845066 -0.684048,4.169417 -0.445761,1.318416 -1.174732,2.488164 -2.192771,3.509319 -1.018116,1.015296 -2.367114,1.821016 -4.046956,2.420089 -1.674059,0.593138 -3.732874,0.889503 -6.176446,0.889094 l -3.351736,0.0085 L 10.48778,0.00313437 4.3348897,0.00122148 4.3315725,-33.552361 Z m -0.355767,5.079281 -3.609679,1.28e-4 -0.0081,11.075264 2.730695,-4.01e-4 c 1.576267,-0.0029 2.921558,-0.193332 4.035911,-0.568226 1.111348,-0.380714 1.961892,-0.989498 2.55456,-1.826387 0.598566,-0.834037 0.900792,-1.924979 0.906718,-3.269897 -2.55e-4,-1.819487 -0.539434,-3.174885 -1.611717,-4.069202 -1.075289,-0.900137 -2.742384,-1.347217 -4.998358,-1.341279 z m 0,0"
         style="fill:#231f20;fill-opacity:1;fill-rule:nonzero;stroke:none"
         aria-label="P"
         transform="matrix(1.3332203,0.01736171,-0.01736171,1.3332203,1035.1425,1881.4583)" />
      <path
         id="path120"
         d="m 34.386016,-16.824356 c -0.003,2.588829 -0.325124,4.942167 -0.971982,7.0568528 -0.64112,2.1178459 -1.616635,3.9438829 -2.926546,5.478111 -1.312955,1.5370393 -2.954705,2.715056 -4.925253,3.5340501 C 23.588993,0.05768106 21.268322,0.46403032 18.594598,0.45761859 15.902846,0.4622194 13.558732,0.05547627 11.559213,-0.75979957 9.5657803,-1.5806978 7.923634,-2.7570874 6.6326576,-4.286041 5.338986,-5.8209654 4.3736692,-7.6507193 3.7307363,-9.7726075 3.0938905,-11.900118 2.7771052,-14.261216 2.7804967,-16.858827 c -0.00332,-3.462816 0.5621025,-6.480856 1.6963933,-9.057046 1.1345232,-2.582046 2.8795221,-4.588651 5.2349968,-6.019817 2.3554742,-1.431166 5.3304862,-2.145797 8.9279612,-2.143776 3.54771,4.5e-5 6.483714,0.711747 8.805199,2.132062 2.327224,1.423475 4.065532,3.42757 5.214926,6.012287 1.14635,2.587528 1.723649,5.624526 1.726043,9.110761 z m -25.1681565,-0.0019 c 3.259e-4,2.503935 0.3312136,4.657421 0.9865765,6.466079 0.661449,1.8030355 1.682363,3.1922646 3.059814,4.1675709 1.374406,0.9781175 3.149353,1.4678265 5.324957,1.4661997 2.187197,0.00177 3.971669,-0.4874336 5.347446,-1.4649012 1.375778,-0.9774676 2.383866,-2.3682771 3.027193,-4.1723124 0.640399,-1.804151 0.96032,-3.955267 0.959994,-6.459202 -6.05e-4,-3.752975 -0.736773,-6.702454 -2.205576,-8.848318 -1.471499,-2.151836 -3.833038,-3.227765 -7.084734,-3.22486 -2.175603,0.0016 -3.957032,0.488014 -5.347446,1.464901 -1.393109,0.970916 -2.421341,2.35213 -3.084811,4.14657 -0.6577316,1.797599 -0.9864344,3.948367 -0.9834135,6.458273 z m 0,0"
         style="fill:#231f20;fill-opacity:1;fill-rule:nonzero;stroke:none"
         aria-label="O"
         transform="matrix(1.3322848,-0.05286813,0.05286813,1.3322848,1074.8236,1882.0921)" />
      <path
         id="path121"
         d="m 4.3368111,0.00551411 0.00412,-33.54914411 6.1576099,-2.95e-4 -0.0073,28.3784131 13.995945,-0.00484 0.0032,5.17073066284 z m 0,0"
         style="fill:#231f20;fill-opacity:1;fill-rule:nonzero;stroke:none"
         aria-label="L"
         transform="matrix(1.3296604,-0.09889914,0.09889914,1.3296604,1124.44,1879.6872)" />
      <path
         id="path122"
         d="M 25.021717,-0.00143353 22.080643,-8.782643 9.486607,-8.780642 6.5391638,-0.00238989 -6.3265281e-4,0.00129889 12.235897,-33.691485 l 7.129873,0.005 12.242197,33.68758618 z M 20.539102,-14.004684 17.672115,-22.633986 c -0.137278,-0.450157 -0.324631,-1.05489 -0.559155,-1.813808 -0.237821,-0.756407 -0.478703,-1.533921 -0.72555,-2.332935 -0.241433,-0.795327 -0.438915,-1.478291 -0.599036,-2.043872 -0.148566,0.618494 -0.341456,1.346296 -0.578279,2.180504 -0.240119,0.836719 -0.473572,1.624082 -0.697849,2.365384 -0.226395,0.735102 -0.386266,1.284075 -0.482907,1.649428 l -2.903828,8.630415 z m 0,0"
         style="fill:#231f20;fill-opacity:1;fill-rule:nonzero;stroke:none"
         aria-label="A"
         transform="matrix(1.3213383,-0.17844605,0.17844605,1.3213383,1159.9147,1876.8497)" />
      <path
         id="path123"
         d="M 33.051267,-0.00138236 25.356465,-0.00582476 9.6619867,-26.238246 l -0.2022761,-0.0029 c 0.058158,0.974574 0.1097114,1.983677 0.1494543,3.023332 0.046599,1.035001 0.092222,2.090695 0.1345424,3.163654 0.049176,1.068305 0.092047,2.138387 0.1257352,3.209695 L 9.8681759,0.00220597 4.3337558,-0.00655745 4.332887,-33.557378 l 7.62354,0.0027 15.674359,26.0257411 0.167746,-0.0037 c -0.02986,-0.8886237 -0.07173,-1.8392012 -0.12273,-2.8511821 -0.04415,-1.016635 -0.08964,-2.057391 -0.13184,-3.115412 -0.03644,-1.05692 -0.07043,-2.095474 -0.09511,-3.120317 l -0.0063,-16.931646 5.607884,-10e-4 z m 0,0"
         style="fill:#231f20;fill-opacity:1;fill-rule:nonzero;stroke:none"
         aria-label="N"
         transform="matrix(1.309587,-0.25051883,0.25051883,1.309587,1202.5684,1871.1724)" />
      <path
         id="path124"
         d="m 31.809752,-17.10421 c -0.0048,3.787248 -0.718321,6.945921 -2.144267,9.4781454 -1.418834,2.5279724 -3.477567,4.4296141 -6.174074,5.7084813 -2.699348,1.27815194 -5.95402,1.91803149473 -9.763301,1.91679760304 L 4.3374138,0.00380633 4.3352387,-33.542898 14.72924,-33.548697 c 3.485978,0.0014 6.507664,0.623103 9.063627,1.870739 2.563076,1.243384 4.540389,3.085521 5.931225,5.529253 1.392267,2.43805 2.08654,5.452643 2.08566,9.044495 z m -6.412328,0.174294 c 0.0014,-2.634023 -0.404295,-4.802586 -1.214395,-6.504974 -0.811511,-1.708785 -2.000337,-2.974799 -3.563638,-3.797326 -1.564711,-0.828925 -3.493904,-1.242059 -5.79042,-1.240117 l -4.340078,0.0071 -0.0039,23.3459737 3.566997,-0.0084 c 3.800758,-9.116e-4 6.644586,-0.9889219 8.528644,-2.9647459 1.880501,-1.9736988 2.821815,-4.9209658 2.816829,-8.8375508 z m 0,0"
         style="fill:#231f20;fill-opacity:1;fill-rule:nonzero;stroke:none"
         aria-label="D"
         transform="matrix(1.2929946,-0.32548838,0.32548838,1.2929946,1252.4061,1861.5592)" />
      <path
         id="path125"
         d=""
         style="fill:#231f20;fill-opacity:1;fill-rule:nonzero;stroke:none"
         aria-label=" "
         transform="matrix(1.279946,-0.37351852,0.37351852,1.279946,1297.3945,1849.9396)" />
      <path
         id="path126"
         d="M 25.044373,0.0027703 2.0197724,0.00424522 2.012673,-4.3982886 10.604224,-13.097639 c 1.681096,-1.73536 3.049843,-3.212008 4.10624,-4.429942 1.061061,-1.213332 1.84935,-2.346098 2.36396,-3.39551 0.521997,-1.053168 0.783976,-2.19725 0.78503,-3.429461 2.34e-4,-1.494396 -0.426975,-2.622768 -1.28629,-3.389718 -0.857499,-0.77252 -1.997782,-1.159598 -3.417156,-1.163111 -1.389704,-5e-6 -2.701502,0.290382 -3.9335173,0.874855 -1.2320154,0.584473 -2.5115326,1.409218 -3.8376439,2.471449 l -3.3060985,-3.961788 c 0.9397713,-0.784496 1.9447012,-1.523102 3.0129739,-2.210249 1.0728739,-0.691809 2.2902393,-1.250243 3.6502802,-1.669731 1.3628266,-0.41858 2.9447526,-0.630165 4.7541336,-0.63203 2.174444,0.0031 4.039219,0.389071 5.588753,1.156054 1.548627,0.769768 2.746216,1.83186 3.593739,3.192755 0.853093,1.362711 1.280418,2.925596 1.28379,4.683086 -0.0027,1.823309 -0.370429,3.499889 -1.096785,5.02877 -0.721693,1.533483 -1.764065,3.04872 -3.123363,4.553098 -1.360267,1.4979 -2.980886,3.132799 -4.866457,4.90936 l -5.2142504,4.9932054 -0.0019,0.2705417 15.3794444,0.0087 z m 0,0"
         style="fill:#231f20;fill-opacity:1;fill-rule:nonzero;stroke:none"
         aria-label="2"
         transform="matrix(1.2676923,-0.41319959,0.41319959,1.2676923,1313.2737,1845.462)" />
      <path
         id="path127"
         d="m 24.945628,-16.79966 c 0.0042,2.729434 -0.203011,5.15449 -0.621592,7.2751683 -0.413094,2.1227324 -1.078727,3.9256783 -1.999642,5.4078102 -0.915429,1.4841865 -2.107413,2.6208246 -3.576643,3.40339976 C 17.277493,0.0720371 15.494309,0.46490771 13.401969,0.46361363 10.773687,0.46500314 8.6052067,-0.21860981 6.8982444,-1.5834543 5.198824,-2.9517317 3.9441612,-4.923052 3.1315124,-7.4984424 2.320918,-10.07932 1.9139788,-13.178524 1.9100054,-16.802569 c 1.489e-4,-3.609989 0.3763825,-6.703777 1.121159,-9.277934 0.7413436,-2.581698 1.9548277,-4.561181 3.6356543,-5.933989 1.6835703,-1.37178 3.9243623,-2.059439 6.7278633,-2.060921 2.632742,0.0034 4.802249,0.684278 6.503724,2.047068 1.706963,1.364845 2.9726,3.340274 3.799657,5.927315 0.834598,2.583608 1.250796,5.68315 1.247565,9.30137 z m -16.9540542,-0.0034 c 0.00419,2.729434 0.1696344,5.003077 0.5001157,6.819212 0.3349415,1.8209331 0.8997242,3.1867244 1.6933215,4.1001174 0.789825,0.9151095 1.864353,1.3705905 3.217068,1.3671322 1.341403,0.00169 2.410994,-0.4487513 3.208774,-1.3513273 0.797091,-0.9090906 1.366946,-2.2723957 1.706821,-4.0909424 0.347417,-1.8219799 0.522459,-4.1026609 0.524436,-6.8485569 0.0013,-2.702349 -0.170297,-4.959529 -0.516551,-6.775313 -0.3442,-1.821271 -0.917214,-3.190144 -1.715271,-4.108335 -0.801828,-0.916475 -1.871557,-1.376416 -3.21296,-1.378107 -1.369177,-0.0027 -2.442877,0.458712 -3.2211,1.384251 -0.7843998,0.916971 -1.3432799,2.284385 -1.6738969,4.10327 -0.3398752,1.818546 -0.5094428,4.07625 -0.5107573,6.778599 z m 0,0"
         style="fill:#231f20;fill-opacity:1;fill-rule:nonzero;stroke:none"
         aria-label="0"
         transform="matrix(1.2486862,-0.4675045,0.4675045,1.2486862,1347.8375,1834.1827)"
         inkscape:label="path127" />
      <path
         id="path128"
         d="M 25.041321,-1.996082e-4 2.0107575,-4.1047082e-4 2.0096351,-4.4058655 10.604797,-13.105966 c 1.677513,-1.732185 3.04431,-3.204803 4.104232,-4.419406 1.067605,-1.217707 1.859277,-2.35523 2.376565,-3.408728 0.514593,-1.054642 0.773073,-2.195739 0.779282,-3.424841 -0.0024,-1.49374 -0.436304,-2.623251 -1.29792,-3.390086 -0.862024,-0.773373 -2.001617,-1.155343 -3.421476,-1.147056 -1.389126,-0.0041 -2.696848,0.287295 -3.9208754,0.868873 -1.2305659,0.581985 -2.5091697,1.404564 -3.8369562,2.470433 L 2.0950691,-29.52635 c 0.9278995,-0.783687 1.9294241,-1.523386 3.0022841,-2.213701 1.0778464,-0.694565 2.2954115,-1.253424 3.6504053,-1.671185 1.3576905,-0.416616 2.9384425,-0.623949 4.7449525,-0.620856 2.171181,-0.0012 4.032839,0.381755 5.584973,1.148936 1.556383,0.772168 2.757172,1.842139 3.602366,3.209914 0.852877,1.364671 1.27941,2.923905 1.273061,4.678108 -0.0011,1.81689 -0.362815,3.49344 -1.08929,5.024663 -0.722226,1.53621 -1.764576,3.054273 -3.129745,4.553044 -1.357486,1.495668 -2.97956,3.127261 -4.867368,4.897476 l -5.2070591,5.0078813 -0.00367,0.2785274 15.3798631,-0.00149 z m 0,0"
         style="fill:#231f20;fill-opacity:1;fill-rule:nonzero;stroke:none"
         aria-label="2"
         transform="matrix(1.2273045,-0.52105797,0.52105797,1.2273045,1381.9269,1821.4076)" />
      <path
         id="path129"
         d="m 13.745031,-21.166403 c 2.108522,0.0019 3.980649,0.390981 5.609831,1.167294 1.634472,0.778833 2.908867,1.918315 3.823183,3.418447 0.919607,1.502651 1.380391,3.341617 1.383614,5.514252 0.0034,2.3901628 -0.501439,4.4440162 -1.508024,6.1614357 -1.002555,1.7225849 -2.476592,3.0452612 -4.422109,3.968029 -1.941489,0.92793309 -4.343862,1.3928559 -7.207119,1.39476842 C 9.684183,0.45939318 8.0407323,0.31235862 6.4940547,0.01671943 4.9551871,-0.28168881 3.6294802,-0.74139358 2.5156737,-1.3597501 l -0.00265,-5.3884457 c 1.1561228,0.6385204 2.5407605,1.1652495 4.1551732,1.5775423 1.6184421,0.417458 3.1490199,0.6242933 4.5982831,0.6203816 1.501911,0.00819 2.779423,-0.20737 3.835306,-0.6388808 1.061172,-0.4289903 1.870363,-1.0851458 2.431476,-1.9698509 0.560989,-0.8912549 0.844933,-2.0183724 0.847802,-3.3865174 -4.4e-5,-1.797912 -0.592568,-3.190142 -1.777447,-4.170139 -1.187525,-0.981258 -3.018312,-1.470692 -5.489842,-1.473592 -0.892406,-1.02e-4 -1.8408842,0.08342 -2.8466952,0.253202 -0.9953561,0.168276 -1.8229379,0.33861 -2.4799763,0.518812 l -2.554039,-1.450671 1.2663599,-16.687482 17.7327456,-10e-4 1.67e-4,5.25745 -12.4228982,-1.56e-4 -0.678091,7.634339 c 0.5510881,-0.100876 1.1767452,-0.20841 1.8808742,-0.323984 0.70287,-0.11293 1.613807,-0.172149 2.732811,-0.177656 z m 0,0"
         style="fill:#231f20;fill-opacity:1;fill-rule:nonzero;stroke:none"
         aria-label="5"
         transform="matrix(1.2036673,-0.57355276,0.57355276,1.2036673,1415.3847,1807.1889)" />
    </g>
  </g>
</svg>
