<svg xmlns="http://www.w3.org/2000/svg" width="1024" height="768">
    <rect width="100%" height="100%" fill="#000"/>
    <g fill="#ed3223"
       style="font-style:normal;font-weight:400;font-size:32px;line-height:1;font-family:BrandmarkSans15;font-variant-ligatures:none;text-align:center;text-anchor:middle">
        <path d="M462.026-22.336h-14.112v3.136h5.248V0h3.616v-17.504l-2.336-1.696h7.584zM481.382-22.336h-3.584v8.768h-9.6v-8.768h-3.584V0h3.584v-8.736l-2.304-1.696h11.904V0h3.584zM498.506-19.2v-3.136h-12.704V0h12.704v-3.136h-9.12v-7.52h8.32v-3.136h-8.32v-3.52l-2.592-1.888zM526.632-14.464l4.416 11.296 1.76 4.448 1.824-4.448 7.968-19.168h-3.584l-6.112 14.72-6.272-16-1.824 4.576-4.48 11.424-6.112-14.72h-3.584l9.824 23.616 1.728-4.448zM557.818-19.2v-3.136h-12.704V0h12.704v-3.136h-9.12v-7.52h8.32v-3.136h-8.32v-3.52l-2.592-1.888zM571.345-12s1.888-1.472 1.888-4.032c0-5.216-4.128-6.304-7.648-6.304h-4.064V0h5.984c3.488 0 7.776-1.376 7.776-6.432 0-4.736-3.936-5.568-3.936-5.568zm-8.832 2.08h4.64c1.536 0 4.704.256 4.704 3.36 0 3.072-3.2 3.424-4.416 3.424h-2.336v-4.896zm2.592-2.784V-19.2h1.632c1.184 0 3.2.48 3.2 3.232 0 2.72-2.016 3.264-3.424 3.264z"
              style="font-style:normal;font-weight:400;font-size:32px;line-height:1;font-family:BrandmarkSans15;font-variant-ligatures:none;text-align:center;text-anchor:middle"
              transform="translate(-2027.3 503.897) scale(4.96347)"/>
    </g>
    <g style="font-style:normal;font-weight:400;font-size:72px;line-height:1;font-family:BrandmarkSans15;font-variant-ligatures:normal;text-align:center;text-anchor:middle">
        <path fill="#ed3223" d="M383.344-50.256h-8.064v19.728h-21.6v-19.728h-8.064V0h8.064v-19.656l-5.184-3.816h26.784V0h8.064z"
              style="font-style:normal;font-weight:400;font-size:72px;line-height:1;font-family:BrandmarkSans15;font-variant-ligatures:normal;text-align:center;text-anchor:middle"
              transform="matrix(1.9 0 0 1.9 -460.764 358.708)"/>
        <path fill="#be4b4c"
              d="M417.84-50.976c-14.904 0-26.928 11.592-26.928 25.848C390.912-10.872 402.936.72 417.84.72c14.832 0 26.928-11.592 26.928-25.848 0-14.256-12.096-25.848-26.928-25.848zm-19.008 25.848c0-10.368 8.496-18.792 19.008-18.792 10.512 0 19.008 8.424 19.008 18.792 0 10.368-8.496 18.792-19.008 18.792-10.512 0-19.008-8.424-19.008-18.792z"
              style="font-style:normal;font-weight:400;font-size:72px;line-height:1;font-family:BrandmarkSans15;font-variant-ligatures:normal;text-align:center;text-anchor:middle"
              transform="matrix(1.9 0 0 1.9 -460.764 358.708)"/>
        <path fill="#8e6375"
              d="m498.647-41.112-2.448-12.024-18.144 38.808-12.528-26.784-5.688-12.024-2.376 12.024L449.183 0h8.064l5.832-29.016L474.023-5.76l4.032 8.64 14.904-31.896L498.863 0h8.064z"
              style="font-style:normal;font-weight:400;font-size:72px;line-height:1;font-family:BrandmarkSans15;font-variant-ligatures:normal;text-align:center;text-anchor:middle"
              transform="matrix(1.9 0 0 1.9 -460.764 358.708)"/>
        <path fill="#5f7c9d"
              d="M542.247-43.2v-7.056h-28.584V0h28.584v-7.056h-20.52v-16.92h18.72v-7.056h-18.72v-7.92l-5.832-4.248z"
              style="font-style:normal;font-weight:400;font-size:72px;line-height:1;font-family:BrandmarkSans15;font-variant-ligatures:normal;text-align:center;text-anchor:middle"
              transform="matrix(1.9 0 0 1.9 -460.764 358.708)"/>
        <path fill="#2f94c6"
              d="M598.403-50.976c-14.904 0-26.928 11.592-26.928 25.848 0 14.256 12.024 25.848 26.928 25.848 14.832 0 26.928-11.592 26.928-25.848 0-14.256-12.096-25.848-26.928-25.848zm-19.008 25.848c0-10.368 8.496-18.792 19.008-18.792 10.512 0 19.008 8.424 19.008 18.792 0 10.368-8.496 18.792-19.008 18.792-10.512 0-19.008-8.424-19.008-18.792z"
              style="font-style:normal;font-weight:400;font-size:72px;line-height:1;font-family:BrandmarkSans15;font-variant-ligatures:normal;text-align:center;text-anchor:middle"
              transform="matrix(1.9 0 0 1.9 -460.764 358.708)"/>
        <path fill="#00adef" d="M670.281-50.256v35.064l-34.488-35.064-2.808-2.88V0h8.064v-35.064L675.465 0l2.88 2.88v-53.136z"
              style="font-style:normal;font-weight:400;font-size:72px;line-height:1;font-family:BrandmarkSans15;font-variant-ligatures:normal;text-align:center;text-anchor:middle"
              transform="matrix(1.9 0 0 1.9 -460.764 358.708)"/>
    </g>
</svg>