<svg xmlns="http://www.w3.org/2000/svg" width="1024" height="768">
    <rect width="100%" height="100%" fill="rgb(221, 210, 180)"/>
    <g fill="#231f20"
       style="font-style:normal;font-weight:700;font-size:32px;line-height:1;font-family:ComfortaaBoldAlt2;font-variant-ligatures:none;text-align:center;text-anchor:middle">
        <path d="M467.45-24.512c-.32.32-.48.704-.48 1.184v9.184h-14.848v-9.184c0-.48-.16-.864-.48-1.184-.32-.32-.704-.48-1.184-.48s-.864.16-1.184.48c-.32.32-.48.704-.48 1.184v21.664c0 .48.16.864.48 1.184.32.32.704.48 1.184.48s.864-.16 1.184-.48c.32-.32.48-.704.48-1.184V-11.2h14.848v9.536c0 .48.16.864.48 1.184.32.32.704.48 1.184.48.448 0 .832-.128 1.152-.448.32-.32.48-.704.48-1.216v-21.664c0-.48-.16-.864-.48-1.184-.32-.32-.704-.48-1.152-.48-.48 0-.864.16-1.184.48zM484.253.128c2.464 0 4.544-.864 6.272-2.592 1.728-1.728 2.624-3.808 2.624-6.272 0-2.464-.896-4.544-2.624-6.272-1.728-1.728-3.808-2.624-6.272-2.624-2.464 0-4.544.896-6.272 2.624-1.728 1.728-2.592 3.808-2.592 6.272 0 2.464.864 4.544 2.592 6.272 1.728 1.728 3.808 2.592 6.272 2.592zm0-14.688c1.6 0 2.976.576 4.128 1.696 1.12 1.152 1.696 2.528 1.696 4.128S489.5-5.76 488.38-4.64c-1.152 1.152-2.528 1.696-4.128 1.696s-2.976-.544-4.096-1.696c-1.152-1.12-1.696-2.496-1.696-4.096s.544-2.976 1.696-4.128c1.12-1.12 2.496-1.696 4.096-1.696zM507.83-16.96c-1.088-.448-2.336-.672-3.712-.672a9.46 9.46 0 0 0-3.2.544c-1.024.384-1.824.928-2.432 1.632-.64.736-.928 1.632-.928 2.656 0 2.592 2.048 4.288 6.144 5.056 1.568.32 2.688.672 3.36 1.12.64.448.992.992.992 1.632 0 .704-.352 1.248-1.024 1.632-.672.416-1.6.608-2.816.608-.928 0-1.792-.16-2.592-.48-.832-.32-1.44-.736-1.824-1.184-.384-.384-.8-.576-1.216-.576-.352 0-.736.16-1.12.448-.448.32-.64.736-.64 1.248 0 .384.128.736.416.992.704.736 1.728 1.312 3.008 1.76 1.28.448 2.624.672 4.096.672 1.44 0 2.688-.224 3.712-.672 1.024-.448 1.824-1.088 2.368-1.888.512-.8.8-1.696.8-2.688 0-1.312-.512-2.4-1.472-3.232-.96-.832-2.624-1.472-4.928-1.952-1.152-.224-2.016-.448-2.592-.704-.608-.256-1.024-.512-1.216-.8-.224-.288-.32-.64-.32-1.088 0-.576.288-1.056.928-1.376.64-.32 1.44-.512 2.432-.512.832 0 1.568.128 2.176.32.576.192 1.152.544 1.696 1.024.448.416.928.608 1.504.608.352 0 .64-.064.896-.256.352-.288.544-.608.544-.992 0-.32-.16-.672-.416-1.024-.64-.768-1.536-1.408-2.624-1.856zM522.645-3.2c-.928 0-1.728-.32-2.368-.992-.672-.64-.992-1.44-.992-2.368v-7.52h2.848a1.423 1.423 0 0 0 1.44-1.44c0-.384-.16-.736-.416-1.024-.288-.256-.64-.416-1.024-.416h-2.848v-4.512c0-.448-.16-.8-.48-1.12-.32-.32-.672-.48-1.12-.48-.448 0-.832.16-1.152.48-.32.32-.448.672-.448 1.12V-6.56c0 1.824.64 3.36 1.92 4.64 1.28 1.28 2.816 1.92 4.64 1.92.448 0 .8-.128 1.12-.448.32-.32.48-.704.48-1.152 0-.448-.16-.8-.48-1.12-.32-.32-.672-.48-1.12-.48zM528.93-17.056c-.32.32-.449.704-.449 1.184v14.24c0 .48.128.864.448 1.184.32.32.704.448 1.184.448s.864-.128 1.184-.448c.288-.32.448-.704.448-1.184v-14.24c0-.48-.16-.864-.448-1.184a1.699 1.699 0 0 0-1.184-.448c-.48 0-.864.16-1.184.448zm2.655-6.88c-.416-.416-.896-.64-1.472-.64s-1.088.224-1.504.64a1.981 1.981 0 0 0-.608 1.472c0 .576.192 1.088.608 1.504.416.416.928.608 1.504.608s1.056-.192 1.472-.608c.416-.416.64-.928.64-1.504s-.224-1.056-.64-1.472zM552.6.096c.449 0 .833-.16 1.153-.48.32-.32.448-.704.448-1.152V-9.76c0-2.24-.8-4.16-2.368-5.76-1.6-1.6-3.552-2.4-5.792-2.4-2.272 0-4.192.8-5.792 2.4-1.6 1.6-2.4 3.52-2.4 5.76v8.224c0 .448.16.832.48 1.152.32.32.704.448 1.12.448.448 0 .832-.128 1.152-.448.32-.32.448-.704.448-1.152V-9.76c0-1.344.512-2.528 1.472-3.488.96-.992 2.144-1.472 3.52-1.472s2.528.48 3.52 1.472c.96.96 1.44 2.144 1.44 3.488v8.256c0 .416.16.8.48 1.12.32.32.704.48 1.12.48zM576.461-8.768c0-2.464-.896-4.544-2.624-6.304-1.76-1.728-3.84-2.624-6.304-2.624-2.464 0-4.544.896-6.304 2.624-1.728 1.76-2.592 3.84-2.592 6.304 0 2.464.864 4.544 2.592 6.304 1.76 1.728 3.84 2.592 6.304 2.592 2.208 0 4.128-.704 5.824-2.144v.608c0 1.6-.576 2.976-1.696 4.096-1.152 1.152-2.528 1.696-4.128 1.696-.992 0-1.92-.224-2.784-.704a5.305 5.305 0 0 1-2.08-1.952c-.256-.352-.576-.576-.992-.64a1.455 1.455 0 0 0-1.152.192 1.491 1.491 0 0 0-.672.96c-.096.416 0 .8.224 1.152a8.76 8.76 0 0 0 1.984 2.208 8.609 8.609 0 0 0 2.56 1.376c.928.32 1.92.48 2.912.48 2.464 0 4.544-.864 6.272-2.592 1.728-1.728 2.624-3.808 2.624-6.272V-8c0-.256.032-.512.032-.768zm-8.928 5.76c-1.6 0-2.944-.544-4.064-1.696-1.152-1.12-1.696-2.464-1.696-4.064s.544-2.944 1.696-4.096c1.12-1.12 2.464-1.696 4.064-1.696s2.944.576 4.096 1.696c1.12 1.152 1.696 2.496 1.696 4.096s-.576 2.944-1.696 4.064c-1.152 1.152-2.496 1.696-4.096 1.696z"
              style="font-style:normal;font-weight:700;font-size:32px;line-height:1;font-family:ComfortaaBoldAlt2;font-variant-ligatures:none;text-align:center;text-anchor:middle"
              transform="translate(-2071.36 497.036) scale(5.03945)"/>
    </g>
    <g style="font-style:normal;font-weight:700;font-size:72px;line-height:1;font-family:ComfortaaBoldAlt2;font-variant-ligatures:normal;text-align:center;text-anchor:middle">
        <path fill="#231f20"
              d="M382.707-54.36c-2.88-1.656-6.336-2.52-10.44-2.52-3.816 0-7.272.648-10.296 1.8-3.024 1.152-5.472 2.88-7.2 5.112-1.728 2.232-2.592 4.896-2.592 7.92 0 4.392 1.656 8.064 5.112 10.944 3.384 2.88 8.064 4.608 14.04 5.184 4.32.432 7.488 1.656 9.648 3.6 2.088 1.944 3.168 4.248 3.168 6.984 0 2.88-1.296 5.184-3.744 6.84-2.52 1.656-5.544 2.448-9.144 2.448-3.096 0-5.904-.648-8.424-1.944-2.592-1.296-4.248-2.88-5.112-4.752-.36-.72-.864-1.368-1.584-1.8-.72-.432-1.44-.72-2.16-.72-.36 0-.576.072-.72.072-.936.216-1.656.576-2.16 1.152-.576.576-.792 1.152-.792 1.872 0 .432.072.864.36 1.44 1.44 3.456 4.032 6.192 7.848 8.28C362.331-.288 366.58.72 371.26.72c3.528 0 6.84-.576 9.936-1.8 3.096-1.224 5.616-3.096 7.488-5.544 1.872-2.448 2.808-5.472 2.808-8.928 0-4.752-1.584-8.568-4.752-11.448-3.168-2.88-7.632-4.68-13.392-5.256-5.184-.504-8.784-1.584-10.8-3.312-2.016-1.656-3.024-3.744-3.024-6.264 0-2.664 1.08-4.68 3.384-6.12 2.232-1.44 5.184-2.16 8.856-2.16 2.952 0 5.4.576 7.344 1.728 1.944 1.152 3.6 2.736 4.896 4.896.288.648.792 1.152 1.44 1.512.576.36 1.296.504 2.016.504s1.296-.144 1.872-.504c.936-.648 1.44-1.512 1.44-2.592 0-.792-.288-1.656-.864-2.592-2.016-3.096-4.392-5.472-7.2-7.2z"
              style="font-style:normal;font-weight:700;font-size:72px;line-height:1;font-family:ComfortaaBoldAlt2;font-variant-ligatures:normal;text-align:center;text-anchor:middle"
              transform="matrix(2 0 0 2 -510.301 347.15)"/>
        <path fill="#383635"
              d="M419.967.288c5.544 0 10.224-1.944 14.112-5.832s5.904-8.568 5.904-14.112c0-5.544-2.016-10.224-5.904-14.112s-8.568-5.904-14.112-5.904c-5.544 0-10.224 2.016-14.112 5.904s-5.832 8.568-5.832 14.112c0 5.544 1.944 10.224 5.832 14.112S414.423.288 419.967.288zm0-33.048c3.6 0 6.696 1.296 9.288 3.816 2.52 2.592 3.816 5.688 3.816 9.288 0 3.6-1.296 6.696-3.816 9.216-2.592 2.592-5.688 3.816-9.288 3.816-3.6 0-6.696-1.224-9.216-3.816-2.592-2.52-3.816-5.616-3.816-9.216 0-3.6 1.224-6.696 3.816-9.288 2.52-2.52 5.616-3.816 9.216-3.816z"
              style="font-style:normal;font-weight:700;font-size:72px;line-height:1;font-family:ComfortaaBoldAlt2;font-variant-ligatures:normal;text-align:center;text-anchor:middle"
              transform="matrix(2 0 0 2 -510.301 347.15)"/>
        <path fill="#4d4d4b"
              d="M527.877-55.152c-.72-.72-1.656-1.08-2.664-1.08-1.44 0-2.592.72-3.312 2.016l-20.808 42.84-21.384-42.84c-.792-1.296-1.872-2.016-3.312-2.016-1.08 0-1.944.36-2.664 1.08-.72.72-1.08 1.656-1.08 2.664v48.744c0 1.08.36 1.944 1.08 2.664.72.72 1.584 1.08 2.664 1.08 1.008 0 1.944-.36 2.664-1.08.72-.72 1.08-1.584 1.08-2.664V-38.88L497.35-4.392c.72 1.512 1.872 2.232 3.456 2.232 1.296 0 2.376-.576 3.24-1.872l17.424-35.496v35.784c0 1.08.36 1.944 1.08 2.664.72.72 1.584 1.08 2.664 1.08 1.008 0 1.872-.36 2.592-1.08.72-.72 1.152-1.584 1.152-2.664v-48.744c0-1.008-.36-1.944-1.08-2.664z"
              style="font-style:normal;font-weight:700;font-size:72px;line-height:1;font-family:ComfortaaBoldAlt2;font-variant-ligatures:normal;text-align:center;text-anchor:middle"
              transform="matrix(2 0 0 2 -510.301 347.15)"/>
        <path fill="#626360"
              d="M575.14-39.528c-1.008 0-1.872.36-2.592 1.08-.72.72-1.008 1.512-1.008 2.52V-18c0 3.096-1.152 5.76-3.312 7.92-2.232 2.232-4.824 3.312-7.92 3.312s-5.688-1.08-7.92-3.312c-2.16-2.16-3.24-4.824-3.24-7.92v-17.928c0-1.008-.36-1.8-1.08-2.52-.72-.72-1.512-1.08-2.52-1.08s-1.872.36-2.592 1.08c-.72.72-1.008 1.512-1.008 2.52V-18c0 5.112 1.728 9.432 5.328 13.032 3.6 3.6 7.92 5.4 13.032 5.4 5.04 0 9.432-1.8 13.032-5.4 3.6-3.6 5.4-7.92 5.4-13.032v-17.928c0-1.008-.36-1.8-1.08-2.52-.72-.72-1.512-1.08-2.52-1.08z"
              style="font-style:normal;font-weight:700;font-size:72px;line-height:1;font-family:ComfortaaBoldAlt2;font-variant-ligatures:normal;text-align:center;text-anchor:middle"
              transform="matrix(2 0 0 2 -510.301 347.15)"/>
        <path fill="#777a76"
              d="M623.354-33.192c-3.744-4.32-8.496-6.48-14.112-6.48-3.744 0-7.128.864-10.08 2.592-3.024 1.728-5.328 4.104-6.984 7.128-1.656 3.024-2.448 6.48-2.448 10.296 0 3.744.792 7.2 2.52 10.224a18.825 18.825 0 0 0 7.128 7.128c3.024 1.728 6.408 2.592 10.224 2.592 5.184 0 9.504-1.584 12.96-4.824.576-.576.864-1.224.864-1.944 0-.936-.504-1.8-1.368-2.592-.576-.432-1.224-.648-1.872-.648-.864 0-1.8.36-2.664 1.008-2.016 1.728-4.68 2.52-7.92 2.52-2.52 0-4.752-.576-6.696-1.728-1.944-1.152-3.456-2.736-4.536-4.752-1.08-2.016-1.584-4.392-1.584-6.984 0-4.032 1.152-7.344 3.456-9.792 2.304-2.448 5.256-3.744 9-3.744 1.8 0 3.384.36 4.824.936 1.44.576 2.736 1.512 3.96 2.808.72.864 1.656 1.296 2.808 1.296.576 0 1.152-.144 1.656-.504 1.008-.72 1.584-1.584 1.584-2.664 0-.72-.288-1.296-.72-1.872z"
              style="font-style:normal;font-weight:700;font-size:72px;line-height:1;font-family:ComfortaaBoldAlt2;font-variant-ligatures:normal;text-align:center;text-anchor:middle"
              transform="matrix(2 0 0 2 -510.301 347.15)"/>
        <path fill="#8c918b"
              d="M663.57-37.584c-2.664-1.44-5.616-2.16-8.928-2.16-2.448 0-4.68.432-6.768 1.296-2.16.864-3.96 2.016-5.472 3.528v-17.64c0-1.08-.36-1.944-1.008-2.664-.72-.648-1.584-1.008-2.664-1.008s-1.944.36-2.664 1.008c-.72.72-1.008 1.584-1.008 2.664V-3.6c0 1.08.288 1.944 1.008 2.664.72.72 1.584 1.008 2.664 1.008s1.944-.288 2.664-1.008c.648-.72 1.008-1.584 1.008-2.664v-20.304c0-1.728.432-3.24 1.368-4.68.936-1.368 2.232-2.448 3.888-3.312 1.656-.792 3.528-1.224 5.544-1.224 3.456 0 6.192 1.008 8.28 3.024 2.088 2.016 3.168 4.896 3.168 8.784V-3.6c0 1.08.288 1.944 1.008 2.664.72.72 1.584 1.008 2.664 1.008 1.008 0 1.872-.288 2.592-1.008s1.08-1.584 1.08-2.664v-17.712c0-3.888-.792-7.2-2.232-9.936-1.512-2.736-3.6-4.896-6.192-6.336z"
              style="font-style:normal;font-weight:700;font-size:72px;line-height:1;font-family:ComfortaaBoldAlt2;font-variant-ligatures:normal;text-align:center;text-anchor:middle"
              transform="matrix(2 0 0 2 -510.301 347.15)"/>
    </g>
</svg>